<svg xmlns="http://www.w3.org/2000/svg" xmlns:xlink="http://www.w3.org/1999/xlink" width="300" zoomAndPan="magnify" viewBox="0 0 224.87999 89.999999" height="120" preserveAspectRatio="xMidYMid meet" version="1.0"><defs><g/></defs><g fill="#ffffff" fill-opacity="1"><g transform="translate(1.768883, 38.708259)"><g><path d="M 0.546875 -17.890625 L 0.546875 -18.078125 L 13.484375 -18.078125 L 13.484375 -15.640625 L 13.3125 -15.640625 L 13.3125 -15.703125 C 13.3125 -16.304688 12.738281 -16.820312 11.59375 -17.25 C 10.457031 -17.675781 8.847656 -17.890625 6.765625 -17.890625 L 3.765625 -17.890625 L 3.765625 -10.125 C 4.035156 -10.382812 4.347656 -10.585938 4.703125 -10.734375 C 5.066406 -10.878906 5.453125 -10.953125 5.859375 -10.953125 C 6.304688 -10.953125 6.710938 -10.894531 7.078125 -10.78125 C 7.441406 -10.664062 7.789062 -10.535156 8.125 -10.390625 C 8.457031 -10.242188 8.789062 -10.113281 9.125 -10 C 9.46875 -9.882812 9.835938 -9.828125 10.234375 -9.828125 C 10.578125 -9.828125 10.882812 -9.921875 11.15625 -10.109375 C 11.425781 -10.296875 11.5625 -10.546875 11.5625 -10.859375 L 11.75 -10.859375 C 11.75 -10.328125 11.539062 -9.863281 11.125 -9.46875 C 10.707031 -9.070312 10.144531 -8.875 9.4375 -8.875 C 8.882812 -8.875 8.398438 -8.953125 7.984375 -9.109375 C 7.578125 -9.265625 7.210938 -9.445312 6.890625 -9.65625 C 6.566406 -9.863281 6.253906 -10.046875 5.953125 -10.203125 C 5.660156 -10.367188 5.351562 -10.457031 5.03125 -10.46875 C 4.757812 -10.476562 4.515625 -10.421875 4.296875 -10.296875 C 4.085938 -10.179688 3.910156 -10.023438 3.765625 -9.828125 L 3.765625 -0.1875 L 6.078125 -0.1875 C 6.367188 -0.1875 6.742188 -0.191406 7.203125 -0.203125 C 7.671875 -0.222656 8.175781 -0.265625 8.71875 -0.328125 C 9.257812 -0.390625 9.796875 -0.484375 10.328125 -0.609375 C 10.867188 -0.734375 11.363281 -0.894531 11.8125 -1.09375 C 12.257812 -1.300781 12.617188 -1.554688 12.890625 -1.859375 C 13.171875 -2.171875 13.3125 -2.546875 13.3125 -2.984375 L 13.484375 -2.984375 L 13.484375 0 L 0.546875 0 L 0.546875 -0.1875 C 1.054688 -0.1875 1.429688 -0.34375 1.671875 -0.65625 C 1.910156 -0.96875 2.054688 -1.476562 2.109375 -2.1875 C 2.171875 -2.894531 2.203125 -3.84375 2.203125 -5.03125 L 2.203125 -13.046875 C 2.203125 -14.242188 2.171875 -15.191406 2.109375 -15.890625 C 2.054688 -16.597656 1.910156 -17.109375 1.671875 -17.421875 C 1.429688 -17.734375 1.054688 -17.890625 0.546875 -17.890625 Z M 0.546875 -17.890625 "/></g></g></g><g fill="#ffffff" fill-opacity="1"><g transform="translate(15.802276, 38.708259)"><g><path d="M 1.078125 -13.734375 C 1.078125 -14.578125 1.328125 -15.351562 1.828125 -16.0625 C 2.328125 -16.78125 3.0625 -17.351562 4.03125 -17.78125 C 5 -18.21875 6.175781 -18.4375 7.5625 -18.4375 C 8.664062 -18.4375 9.625 -18.359375 10.4375 -18.203125 C 11.25 -18.046875 12.003906 -17.847656 12.703125 -17.609375 L 12.703125 -15.1875 L 12.53125 -15.1875 C 12.53125 -15.1875 12.476562 -15.285156 12.375 -15.484375 C 12.28125 -15.691406 12.117188 -15.945312 11.890625 -16.25 C 11.660156 -16.550781 11.351562 -16.851562 10.96875 -17.15625 C 10.59375 -17.457031 10.125 -17.707031 9.5625 -17.90625 C 9 -18.113281 8.332031 -18.21875 7.5625 -18.21875 C 6.4375 -18.21875 5.484375 -18.019531 4.703125 -17.625 C 3.929688 -17.226562 3.34375 -16.722656 2.9375 -16.109375 C 2.539062 -15.492188 2.34375 -14.847656 2.34375 -14.171875 C 2.34375 -13.554688 2.503906 -13.03125 2.828125 -12.59375 C 3.148438 -12.164062 3.582031 -11.796875 4.125 -11.484375 C 4.675781 -11.171875 5.289062 -10.890625 5.96875 -10.640625 C 6.644531 -10.398438 7.34375 -10.160156 8.0625 -9.921875 C 8.78125 -9.679688 9.476562 -9.421875 10.15625 -9.140625 C 10.832031 -8.859375 11.441406 -8.515625 11.984375 -8.109375 C 12.535156 -7.710938 12.972656 -7.234375 13.296875 -6.671875 C 13.617188 -6.117188 13.78125 -5.441406 13.78125 -4.640625 C 13.78125 -4.015625 13.617188 -3.40625 13.296875 -2.8125 C 12.984375 -2.21875 12.53125 -1.679688 11.9375 -1.203125 C 11.351562 -0.722656 10.644531 -0.34375 9.8125 -0.0625 C 8.976562 0.21875 8.039062 0.359375 7 0.359375 C 6.195312 0.359375 5.4375 0.242188 4.71875 0.015625 C 4 -0.210938 3.335938 -0.5 2.734375 -0.84375 C 2.128906 -1.1875 1.601562 -1.519531 1.15625 -1.84375 L 1.15625 -4.265625 L 1.34375 -4.265625 C 1.34375 -4.265625 1.429688 -4.117188 1.609375 -3.828125 C 1.796875 -3.546875 2.070312 -3.1875 2.4375 -2.75 C 2.8125 -2.320312 3.265625 -1.894531 3.796875 -1.46875 C 4.335938 -1.039062 4.957031 -0.679688 5.65625 -0.390625 C 6.363281 -0.109375 7.148438 0.03125 8.015625 0.03125 C 8.671875 0.03125 9.285156 -0.0703125 9.859375 -0.28125 C 10.429688 -0.5 10.929688 -0.796875 11.359375 -1.171875 C 11.785156 -1.546875 12.117188 -1.96875 12.359375 -2.4375 C 12.609375 -2.90625 12.734375 -3.394531 12.734375 -3.90625 C 12.734375 -4.582031 12.566406 -5.160156 12.234375 -5.640625 C 11.910156 -6.128906 11.472656 -6.550781 10.921875 -6.90625 C 10.367188 -7.257812 9.742188 -7.570312 9.046875 -7.84375 C 8.359375 -8.125 7.644531 -8.390625 6.90625 -8.640625 C 6.164062 -8.890625 5.445312 -9.160156 4.75 -9.453125 C 4.0625 -9.742188 3.441406 -10.078125 2.890625 -10.453125 C 2.335938 -10.835938 1.894531 -11.296875 1.5625 -11.828125 C 1.238281 -12.367188 1.078125 -13.003906 1.078125 -13.734375 Z M 1.078125 -13.734375 "/></g></g></g><g fill="#ffffff" fill-opacity="1"><g transform="translate(30.667543, 38.708259)"><g><path d="M 0.546875 -18.078125 L 13.171875 -18.078125 L 13.171875 -15.640625 L 13 -15.640625 C 13 -15.660156 13 -15.664062 13 -15.65625 C 13.007812 -15.65625 13.015625 -15.671875 13.015625 -15.703125 C 13.015625 -16.117188 12.78125 -16.488281 12.3125 -16.8125 C 11.851562 -17.132812 11.21875 -17.394531 10.40625 -17.59375 C 9.59375 -17.789062 8.664062 -17.890625 7.625 -17.890625 L 7.625 -5.03125 C 7.625 -3.84375 7.640625 -2.894531 7.671875 -2.1875 C 7.710938 -1.476562 7.835938 -0.96875 8.046875 -0.65625 C 8.265625 -0.34375 8.628906 -0.1875 9.140625 -0.1875 L 9.140625 0 L 4.421875 0 L 4.421875 -0.1875 C 4.941406 -0.1875 5.316406 -0.34375 5.546875 -0.65625 C 5.785156 -0.96875 5.9375 -1.476562 6 -2.1875 C 6.0625 -2.894531 6.09375 -3.84375 6.09375 -5.03125 L 6.09375 -17.890625 C 5.050781 -17.890625 4.125 -17.789062 3.3125 -17.59375 C 2.5 -17.394531 1.859375 -17.132812 1.390625 -16.8125 C 0.929688 -16.488281 0.703125 -16.117188 0.703125 -15.703125 C 0.703125 -15.671875 0.703125 -15.65625 0.703125 -15.65625 C 0.710938 -15.664062 0.71875 -15.660156 0.71875 -15.640625 L 0.546875 -15.640625 Z M 0.546875 -18.078125 "/></g></g></g><g fill="#ffffff" fill-opacity="1"><g transform="translate(44.393491, 38.708259)"><g><path d="M 0.546875 -17.890625 L 0.546875 -18.078125 L 5.421875 -18.078125 L 5.421875 -17.890625 C 4.898438 -17.890625 4.519531 -17.734375 4.28125 -17.421875 C 4.050781 -17.109375 3.90625 -16.597656 3.84375 -15.890625 C 3.789062 -15.191406 3.765625 -14.242188 3.765625 -13.046875 L 3.765625 -5.03125 C 3.765625 -3.84375 3.789062 -2.894531 3.84375 -2.1875 C 3.90625 -1.476562 4.050781 -0.96875 4.28125 -0.65625 C 4.519531 -0.34375 4.898438 -0.1875 5.421875 -0.1875 L 5.421875 0 L 0.546875 0 L 0.546875 -0.1875 C 1.054688 -0.1875 1.429688 -0.34375 1.671875 -0.65625 C 1.910156 -0.96875 2.054688 -1.476562 2.109375 -2.1875 C 2.171875 -2.894531 2.203125 -3.84375 2.203125 -5.03125 L 2.203125 -13.046875 C 2.203125 -14.242188 2.171875 -15.191406 2.109375 -15.890625 C 2.054688 -16.597656 1.910156 -17.109375 1.671875 -17.421875 C 1.429688 -17.734375 1.054688 -17.890625 0.546875 -17.890625 Z M 0.546875 -17.890625 "/></g></g></g><g fill="#ffffff" fill-opacity="1"><g transform="translate(50.361287, 38.708259)"><g><path d="M 0.546875 -18.078125 L 5.421875 -18.078125 L 5.421875 -17.890625 C 4.898438 -17.890625 4.519531 -17.734375 4.28125 -17.421875 C 4.050781 -17.109375 3.90625 -16.597656 3.84375 -15.890625 C 3.789062 -15.191406 3.765625 -14.242188 3.765625 -13.046875 L 3.765625 -0.1875 L 6.0625 -0.1875 C 6.34375 -0.1875 6.710938 -0.191406 7.171875 -0.203125 C 7.640625 -0.222656 8.144531 -0.265625 8.6875 -0.328125 C 9.238281 -0.390625 9.78125 -0.484375 10.3125 -0.609375 C 10.851562 -0.734375 11.347656 -0.894531 11.796875 -1.09375 C 12.242188 -1.300781 12.601562 -1.554688 12.875 -1.859375 C 13.144531 -2.171875 13.28125 -2.546875 13.28125 -2.984375 L 13.46875 -2.984375 L 13.46875 0 L 0.546875 0 L 0.546875 -0.1875 C 1.054688 -0.1875 1.429688 -0.34375 1.671875 -0.65625 C 1.910156 -0.96875 2.054688 -1.476562 2.109375 -2.1875 C 2.171875 -2.894531 2.203125 -3.84375 2.203125 -5.03125 L 2.203125 -13.046875 C 2.203125 -14.242188 2.171875 -15.191406 2.109375 -15.890625 C 2.054688 -16.597656 1.910156 -17.109375 1.671875 -17.421875 C 1.429688 -17.734375 1.054688 -17.890625 0.546875 -17.890625 Z M 0.546875 -18.078125 "/></g></g></g><g fill="#ffffff" fill-opacity="1"><g transform="translate(64.376584, 38.708259)"><g><path d="M 9.125 0.359375 C 8.007812 0.359375 6.960938 0.128906 5.984375 -0.328125 C 5.003906 -0.796875 4.144531 -1.453125 3.40625 -2.296875 C 2.675781 -3.148438 2.101562 -4.148438 1.6875 -5.296875 C 1.28125 -6.441406 1.078125 -7.6875 1.078125 -9.03125 C 1.078125 -10.394531 1.28125 -11.644531 1.6875 -12.78125 C 2.101562 -13.925781 2.675781 -14.921875 3.40625 -15.765625 C 4.144531 -16.617188 5.003906 -17.273438 5.984375 -17.734375 C 6.960938 -18.203125 8.007812 -18.4375 9.125 -18.4375 C 10.25 -18.4375 11.296875 -18.203125 12.265625 -17.734375 C 13.242188 -17.273438 14.097656 -16.617188 14.828125 -15.765625 C 15.566406 -14.921875 16.140625 -13.925781 16.546875 -12.78125 C 16.960938 -11.644531 17.171875 -10.394531 17.171875 -9.03125 C 17.171875 -7.6875 16.960938 -6.441406 16.546875 -5.296875 C 16.140625 -4.148438 15.566406 -3.148438 14.828125 -2.296875 C 14.097656 -1.453125 13.242188 -0.796875 12.265625 -0.328125 C 11.296875 0.128906 10.25 0.359375 9.125 0.359375 Z M 9.125 -18.21875 C 8.1875 -18.21875 7.328125 -17.988281 6.546875 -17.53125 C 5.765625 -17.070312 5.085938 -16.429688 4.515625 -15.609375 C 3.941406 -14.785156 3.5 -13.816406 3.1875 -12.703125 C 2.875 -11.585938 2.71875 -10.363281 2.71875 -9.03125 C 2.71875 -7.71875 2.882812 -6.5 3.21875 -5.375 C 3.550781 -4.257812 4.015625 -3.289062 4.609375 -2.46875 C 5.203125 -1.644531 5.882812 -1.003906 6.65625 -0.546875 C 7.4375 -0.0859375 8.257812 0.140625 9.125 0.140625 C 10 0.140625 10.820312 -0.0859375 11.59375 -0.546875 C 12.375 -1.003906 13.054688 -1.644531 13.640625 -2.46875 C 14.234375 -3.289062 14.695312 -4.257812 15.03125 -5.375 C 15.375 -6.5 15.546875 -7.71875 15.546875 -9.03125 C 15.546875 -10.363281 15.390625 -11.585938 15.078125 -12.703125 C 14.765625 -13.816406 14.320312 -14.785156 13.75 -15.609375 C 13.175781 -16.429688 12.5 -17.070312 11.71875 -17.53125 C 10.9375 -17.988281 10.070312 -18.21875 9.125 -18.21875 Z M 9.125 -18.21875 "/></g></g></g><g fill="#ffffff" fill-opacity="1"><g transform="translate(82.641685, 38.708259)"><g/></g></g><g fill="#ffffff" fill-opacity="1"><g transform="translate(88.971171, 38.708259)"><g><path d="M 0.546875 -18.078125 L 3.703125 -18.078125 L 13.828125 -2.640625 L 13.828125 -10.515625 C 13.828125 -12.273438 13.679688 -13.691406 13.390625 -14.765625 C 13.109375 -15.847656 12.734375 -16.640625 12.265625 -17.140625 C 11.796875 -17.640625 11.304688 -17.890625 10.796875 -17.890625 L 10.796875 -18.078125 L 15.671875 -18.078125 L 15.671875 -17.890625 C 15.148438 -17.890625 14.769531 -17.734375 14.53125 -17.421875 C 14.300781 -17.109375 14.15625 -16.597656 14.09375 -15.890625 C 14.039062 -15.191406 14.015625 -14.242188 14.015625 -13.046875 L 14.015625 0.359375 L 13.828125 0.359375 L 2.390625 -17.0625 L 2.390625 -7.5625 C 2.390625 -5.8125 2.53125 -4.394531 2.8125 -3.3125 C 3.101562 -2.226562 3.476562 -1.4375 3.9375 -0.9375 C 4.40625 -0.4375 4.898438 -0.1875 5.421875 -0.1875 L 5.421875 0 L 0.546875 0 L 0.546875 -0.1875 C 1.054688 -0.1875 1.429688 -0.34375 1.671875 -0.65625 C 1.910156 -0.96875 2.054688 -1.476562 2.109375 -2.1875 C 2.171875 -2.894531 2.203125 -3.84375 2.203125 -5.03125 L 2.203125 -13.046875 C 2.203125 -14.242188 2.171875 -15.191406 2.109375 -15.890625 C 2.054688 -16.597656 1.910156 -17.109375 1.671875 -17.421875 C 1.429688 -17.734375 1.054688 -17.890625 0.546875 -17.890625 Z M 0.546875 -18.078125 "/></g></g></g><g fill="#ffffff" fill-opacity="1"><g transform="translate(105.192738, 38.708259)"><g><path d="M 0.546875 -3.15625 C 0.546875 -3.90625 0.71875 -4.578125 1.0625 -5.171875 C 1.414062 -5.773438 1.863281 -6.316406 2.40625 -6.796875 C 2.957031 -7.285156 3.539062 -7.734375 4.15625 -8.140625 C 4.769531 -8.546875 5.347656 -8.921875 5.890625 -9.265625 C 6.441406 -9.609375 6.894531 -9.9375 7.25 -10.25 C 7.601562 -10.5625 7.78125 -10.875 7.78125 -11.1875 C 7.78125 -11.351562 7.734375 -11.472656 7.640625 -11.546875 C 7.554688 -11.628906 7.457031 -11.671875 7.34375 -11.671875 C 7.125 -11.671875 6.921875 -11.570312 6.734375 -11.375 C 6.546875 -11.1875 6.359375 -10.96875 6.171875 -10.71875 C 5.992188 -10.476562 5.800781 -10.257812 5.59375 -10.0625 C 5.382812 -9.875 5.15625 -9.78125 4.90625 -9.78125 C 4.644531 -9.78125 4.488281 -9.878906 4.4375 -10.078125 C 4.382812 -10.285156 4.398438 -10.503906 4.484375 -10.734375 C 4.765625 -11.460938 5.019531 -12.132812 5.25 -12.75 C 5.476562 -13.375 5.703125 -13.976562 5.921875 -14.5625 C 6.140625 -15.144531 6.363281 -15.75 6.59375 -16.375 C 6.832031 -17 7.097656 -17.6875 7.390625 -18.4375 L 7.578125 -18.4375 L 13.359375 -3.15625 C 13.753906 -2.175781 14.125 -1.4375 14.46875 -0.9375 C 14.820312 -0.4375 15.28125 -0.1875 15.84375 -0.1875 L 15.84375 0 L 9.90625 0 L 9.90625 -0.1875 C 10.539062 -0.1875 11.023438 -0.269531 11.359375 -0.4375 C 11.691406 -0.601562 11.90625 -0.835938 12 -1.140625 C 12.101562 -1.441406 12.117188 -1.789062 12.046875 -2.1875 C 11.972656 -2.582031 11.847656 -3.007812 11.671875 -3.46875 L 9.4375 -9.375 C 9.507812 -8.800781 9.546875 -8.082031 9.546875 -7.21875 C 9.546875 -5.757812 9.316406 -4.457031 8.859375 -3.3125 C 8.410156 -2.164062 7.757812 -1.265625 6.90625 -0.609375 C 6.0625 0.0351562 5.035156 0.359375 3.828125 0.359375 C 3.128906 0.359375 2.535156 0.195312 2.046875 -0.125 C 1.554688 -0.445312 1.179688 -0.875 0.921875 -1.40625 C 0.671875 -1.945312 0.546875 -2.53125 0.546875 -3.15625 Z M 2.078125 -3.5 C 2.078125 -2.65625 2.328125 -1.941406 2.828125 -1.359375 C 3.335938 -0.785156 4.035156 -0.5 4.921875 -0.5 C 5.679688 -0.5 6.335938 -0.703125 6.890625 -1.109375 C 7.441406 -1.523438 7.898438 -2.0625 8.265625 -2.71875 C 8.640625 -3.382812 8.914062 -4.109375 9.09375 -4.890625 C 9.269531 -5.679688 9.359375 -6.441406 9.359375 -7.171875 C 9.359375 -7.847656 9.335938 -8.453125 9.296875 -8.984375 C 9.253906 -9.515625 9.148438 -10.046875 8.984375 -10.578125 L 6.796875 -16.34375 L 4.71875 -10.8125 C 4.59375 -10.5 4.554688 -10.28125 4.609375 -10.15625 C 4.671875 -10.03125 4.773438 -9.96875 4.921875 -9.96875 C 5.117188 -9.96875 5.3125 -10.0625 5.5 -10.25 C 5.695312 -10.445312 5.890625 -10.664062 6.078125 -10.90625 C 6.273438 -11.15625 6.476562 -11.375 6.6875 -11.5625 C 6.90625 -11.757812 7.132812 -11.859375 7.375 -11.859375 C 7.539062 -11.859375 7.679688 -11.800781 7.796875 -11.6875 C 7.910156 -11.570312 7.96875 -11.394531 7.96875 -11.15625 C 7.96875 -10.757812 7.828125 -10.394531 7.546875 -10.0625 C 7.265625 -9.726562 6.898438 -9.40625 6.453125 -9.09375 C 6.003906 -8.78125 5.523438 -8.445312 5.015625 -8.09375 C 4.515625 -7.75 4.039062 -7.363281 3.59375 -6.9375 C 3.144531 -6.507812 2.78125 -6.015625 2.5 -5.453125 C 2.21875 -4.898438 2.078125 -4.25 2.078125 -3.5 Z M 2.078125 -3.5 "/></g></g></g><g fill="#ffffff" fill-opacity="1"><g transform="translate(121.03454, 38.708259)"><g><path d="M 0 -17.890625 L 0 -18.078125 L 5.03125 -18.078125 L 5.03125 -17.890625 L 4.625 -17.890625 C 4.375 -17.890625 4.148438 -17.820312 3.953125 -17.6875 C 3.753906 -17.550781 3.65625 -17.300781 3.65625 -16.9375 C 3.65625 -16.726562 3.734375 -16.414062 3.890625 -16 C 4.054688 -15.59375 4.273438 -15.113281 4.546875 -14.5625 C 4.828125 -14.019531 5.132812 -13.445312 5.46875 -12.84375 C 5.800781 -12.238281 6.128906 -11.632812 6.453125 -11.03125 C 6.785156 -10.4375 7.097656 -9.875 7.390625 -9.34375 C 7.691406 -8.820312 7.929688 -8.382812 8.109375 -8.03125 C 8.367188 -8.5 8.675781 -9.066406 9.03125 -9.734375 C 9.394531 -10.410156 9.769531 -11.125 10.15625 -11.875 C 10.539062 -12.625 10.90625 -13.347656 11.25 -14.046875 C 11.59375 -14.742188 11.867188 -15.359375 12.078125 -15.890625 C 12.296875 -16.429688 12.40625 -16.820312 12.40625 -17.0625 C 12.40625 -17.382812 12.296875 -17.601562 12.078125 -17.71875 C 11.867188 -17.832031 11.640625 -17.890625 11.390625 -17.890625 L 10.921875 -17.890625 L 10.921875 -18.078125 L 14.78125 -18.078125 L 14.78125 -17.890625 C 14.320312 -17.890625 13.9375 -17.734375 13.625 -17.421875 C 13.320312 -17.109375 13.003906 -16.617188 12.671875 -15.953125 C 12.335938 -15.296875 11.890625 -14.441406 11.328125 -13.390625 C 10.960938 -12.691406 10.570312 -11.972656 10.15625 -11.234375 C 9.75 -10.503906 9.367188 -9.820312 9.015625 -9.1875 C 8.660156 -8.5625 8.378906 -8.046875 8.171875 -7.640625 L 8.171875 -5.03125 C 8.171875 -3.84375 8.203125 -2.894531 8.265625 -2.1875 C 8.328125 -1.476562 8.472656 -0.96875 8.703125 -0.65625 C 8.941406 -0.34375 9.316406 -0.1875 9.828125 -0.1875 L 9.828125 0 L 4.953125 0 L 4.953125 -0.1875 C 5.472656 -0.1875 5.847656 -0.34375 6.078125 -0.65625 C 6.316406 -0.96875 6.460938 -1.476562 6.515625 -2.1875 C 6.578125 -2.894531 6.609375 -3.84375 6.609375 -5.03125 L 6.609375 -7.640625 C 6.410156 -8.046875 6.132812 -8.5625 5.78125 -9.1875 C 5.425781 -9.820312 5.039062 -10.503906 4.625 -11.234375 C 4.21875 -11.972656 3.828125 -12.691406 3.453125 -13.390625 C 2.910156 -14.441406 2.46875 -15.296875 2.125 -15.953125 C 1.78125 -16.617188 1.453125 -17.109375 1.140625 -17.421875 C 0.835938 -17.734375 0.457031 -17.890625 0 -17.890625 Z M 0 -17.890625 "/></g></g></g><g fill="#ffffff" fill-opacity="1"><g transform="translate(135.827464, 38.708259)"><g><path d="M 0.546875 -17.890625 L 0.546875 -18.078125 L 13.484375 -18.078125 L 13.484375 -15.640625 L 13.3125 -15.640625 L 13.3125 -15.703125 C 13.3125 -16.304688 12.738281 -16.820312 11.59375 -17.25 C 10.457031 -17.675781 8.847656 -17.890625 6.765625 -17.890625 L 3.765625 -17.890625 L 3.765625 -10.125 C 4.035156 -10.382812 4.347656 -10.585938 4.703125 -10.734375 C 5.066406 -10.878906 5.453125 -10.953125 5.859375 -10.953125 C 6.304688 -10.953125 6.710938 -10.894531 7.078125 -10.78125 C 7.441406 -10.664062 7.789062 -10.535156 8.125 -10.390625 C 8.457031 -10.242188 8.789062 -10.113281 9.125 -10 C 9.46875 -9.882812 9.835938 -9.828125 10.234375 -9.828125 C 10.578125 -9.828125 10.882812 -9.921875 11.15625 -10.109375 C 11.425781 -10.296875 11.5625 -10.546875 11.5625 -10.859375 L 11.75 -10.859375 C 11.75 -10.328125 11.539062 -9.863281 11.125 -9.46875 C 10.707031 -9.070312 10.144531 -8.875 9.4375 -8.875 C 8.882812 -8.875 8.398438 -8.953125 7.984375 -9.109375 C 7.578125 -9.265625 7.210938 -9.445312 6.890625 -9.65625 C 6.566406 -9.863281 6.253906 -10.046875 5.953125 -10.203125 C 5.660156 -10.367188 5.351562 -10.457031 5.03125 -10.46875 C 4.757812 -10.476562 4.515625 -10.421875 4.296875 -10.296875 C 4.085938 -10.179688 3.910156 -10.023438 3.765625 -9.828125 L 3.765625 -0.1875 L 6.078125 -0.1875 C 6.367188 -0.1875 6.742188 -0.191406 7.203125 -0.203125 C 7.671875 -0.222656 8.175781 -0.265625 8.71875 -0.328125 C 9.257812 -0.390625 9.796875 -0.484375 10.328125 -0.609375 C 10.867188 -0.734375 11.363281 -0.894531 11.8125 -1.09375 C 12.257812 -1.300781 12.617188 -1.554688 12.890625 -1.859375 C 13.171875 -2.171875 13.3125 -2.546875 13.3125 -2.984375 L 13.484375 -2.984375 L 13.484375 0 L 0.546875 0 L 0.546875 -0.1875 C 1.054688 -0.1875 1.429688 -0.34375 1.671875 -0.65625 C 1.910156 -0.96875 2.054688 -1.476562 2.109375 -2.1875 C 2.171875 -2.894531 2.203125 -3.84375 2.203125 -5.03125 L 2.203125 -13.046875 C 2.203125 -14.242188 2.171875 -15.191406 2.109375 -15.890625 C 2.054688 -16.597656 1.910156 -17.109375 1.671875 -17.421875 C 1.429688 -17.734375 1.054688 -17.890625 0.546875 -17.890625 Z M 0.546875 -17.890625 "/></g></g></g><g fill="#ffffff" fill-opacity="1"><g transform="translate(149.860858, 38.708259)"><g/></g></g><g fill="#ffffff" fill-opacity="1"><g transform="translate(156.190345, 38.708259)"><g><path d="M 0.546875 -18.078125 L 3.703125 -18.078125 L 13.828125 -2.640625 L 13.828125 -10.515625 C 13.828125 -12.273438 13.679688 -13.691406 13.390625 -14.765625 C 13.109375 -15.847656 12.734375 -16.640625 12.265625 -17.140625 C 11.796875 -17.640625 11.304688 -17.890625 10.796875 -17.890625 L 10.796875 -18.078125 L 15.671875 -18.078125 L 15.671875 -17.890625 C 15.148438 -17.890625 14.769531 -17.734375 14.53125 -17.421875 C 14.300781 -17.109375 14.15625 -16.597656 14.09375 -15.890625 C 14.039062 -15.191406 14.015625 -14.242188 14.015625 -13.046875 L 14.015625 0.359375 L 13.828125 0.359375 L 2.390625 -17.0625 L 2.390625 -7.5625 C 2.390625 -5.8125 2.53125 -4.394531 2.8125 -3.3125 C 3.101562 -2.226562 3.476562 -1.4375 3.9375 -0.9375 C 4.40625 -0.4375 4.898438 -0.1875 5.421875 -0.1875 L 5.421875 0 L 0.546875 0 L 0.546875 -0.1875 C 1.054688 -0.1875 1.429688 -0.34375 1.671875 -0.65625 C 1.910156 -0.96875 2.054688 -1.476562 2.109375 -2.1875 C 2.171875 -2.894531 2.203125 -3.84375 2.203125 -5.03125 L 2.203125 -13.046875 C 2.203125 -14.242188 2.171875 -15.191406 2.109375 -15.890625 C 2.054688 -16.597656 1.910156 -17.109375 1.671875 -17.421875 C 1.429688 -17.734375 1.054688 -17.890625 0.546875 -17.890625 Z M 0.546875 -18.078125 "/></g></g></g><g fill="#ffffff" fill-opacity="1"><g transform="translate(172.411912, 38.708259)"><g><path d="M 0.546875 -3.15625 C 0.546875 -3.90625 0.71875 -4.578125 1.0625 -5.171875 C 1.414062 -5.773438 1.863281 -6.316406 2.40625 -6.796875 C 2.957031 -7.285156 3.539062 -7.734375 4.15625 -8.140625 C 4.769531 -8.546875 5.347656 -8.921875 5.890625 -9.265625 C 6.441406 -9.609375 6.894531 -9.9375 7.25 -10.25 C 7.601562 -10.5625 7.78125 -10.875 7.78125 -11.1875 C 7.78125 -11.351562 7.734375 -11.472656 7.640625 -11.546875 C 7.554688 -11.628906 7.457031 -11.671875 7.34375 -11.671875 C 7.125 -11.671875 6.921875 -11.570312 6.734375 -11.375 C 6.546875 -11.1875 6.359375 -10.96875 6.171875 -10.71875 C 5.992188 -10.476562 5.800781 -10.257812 5.59375 -10.0625 C 5.382812 -9.875 5.15625 -9.78125 4.90625 -9.78125 C 4.644531 -9.78125 4.488281 -9.878906 4.4375 -10.078125 C 4.382812 -10.285156 4.398438 -10.503906 4.484375 -10.734375 C 4.765625 -11.460938 5.019531 -12.132812 5.25 -12.75 C 5.476562 -13.375 5.703125 -13.976562 5.921875 -14.5625 C 6.140625 -15.144531 6.363281 -15.75 6.59375 -16.375 C 6.832031 -17 7.097656 -17.6875 7.390625 -18.4375 L 7.578125 -18.4375 L 13.359375 -3.15625 C 13.753906 -2.175781 14.125 -1.4375 14.46875 -0.9375 C 14.820312 -0.4375 15.28125 -0.1875 15.84375 -0.1875 L 15.84375 0 L 9.90625 0 L 9.90625 -0.1875 C 10.539062 -0.1875 11.023438 -0.269531 11.359375 -0.4375 C 11.691406 -0.601562 11.90625 -0.835938 12 -1.140625 C 12.101562 -1.441406 12.117188 -1.789062 12.046875 -2.1875 C 11.972656 -2.582031 11.847656 -3.007812 11.671875 -3.46875 L 9.4375 -9.375 C 9.507812 -8.800781 9.546875 -8.082031 9.546875 -7.21875 C 9.546875 -5.757812 9.316406 -4.457031 8.859375 -3.3125 C 8.410156 -2.164062 7.757812 -1.265625 6.90625 -0.609375 C 6.0625 0.0351562 5.035156 0.359375 3.828125 0.359375 C 3.128906 0.359375 2.535156 0.195312 2.046875 -0.125 C 1.554688 -0.445312 1.179688 -0.875 0.921875 -1.40625 C 0.671875 -1.945312 0.546875 -2.53125 0.546875 -3.15625 Z M 2.078125 -3.5 C 2.078125 -2.65625 2.328125 -1.941406 2.828125 -1.359375 C 3.335938 -0.785156 4.035156 -0.5 4.921875 -0.5 C 5.679688 -0.5 6.335938 -0.703125 6.890625 -1.109375 C 7.441406 -1.523438 7.898438 -2.0625 8.265625 -2.71875 C 8.640625 -3.382812 8.914062 -4.109375 9.09375 -4.890625 C 9.269531 -5.679688 9.359375 -6.441406 9.359375 -7.171875 C 9.359375 -7.847656 9.335938 -8.453125 9.296875 -8.984375 C 9.253906 -9.515625 9.148438 -10.046875 8.984375 -10.578125 L 6.796875 -16.34375 L 4.71875 -10.8125 C 4.59375 -10.5 4.554688 -10.28125 4.609375 -10.15625 C 4.671875 -10.03125 4.773438 -9.96875 4.921875 -9.96875 C 5.117188 -9.96875 5.3125 -10.0625 5.5 -10.25 C 5.695312 -10.445312 5.890625 -10.664062 6.078125 -10.90625 C 6.273438 -11.15625 6.476562 -11.375 6.6875 -11.5625 C 6.90625 -11.757812 7.132812 -11.859375 7.375 -11.859375 C 7.539062 -11.859375 7.679688 -11.800781 7.796875 -11.6875 C 7.910156 -11.570312 7.96875 -11.394531 7.96875 -11.15625 C 7.96875 -10.757812 7.828125 -10.394531 7.546875 -10.0625 C 7.265625 -9.726562 6.898438 -9.40625 6.453125 -9.09375 C 6.003906 -8.78125 5.523438 -8.445312 5.015625 -8.09375 C 4.515625 -7.75 4.039062 -7.363281 3.59375 -6.9375 C 3.144531 -6.507812 2.78125 -6.015625 2.5 -5.453125 C 2.21875 -4.898438 2.078125 -4.25 2.078125 -3.5 Z M 2.078125 -3.5 "/></g></g></g><g fill="#ffffff" fill-opacity="1"><g transform="translate(188.253714, 38.708259)"><g><path d="M 0.546875 -17.890625 L 0.546875 -18.078125 L 5.421875 -18.078125 L 5.421875 -17.890625 C 4.898438 -17.890625 4.519531 -17.734375 4.28125 -17.421875 C 4.050781 -17.109375 3.90625 -16.597656 3.84375 -15.890625 C 3.789062 -15.191406 3.765625 -14.242188 3.765625 -13.046875 L 3.765625 -5.03125 C 3.765625 -3.84375 3.789062 -2.894531 3.84375 -2.1875 C 3.90625 -1.476562 4.050781 -0.96875 4.28125 -0.65625 C 4.519531 -0.34375 4.898438 -0.1875 5.421875 -0.1875 L 5.421875 0 L 0.546875 0 L 0.546875 -0.1875 C 1.054688 -0.1875 1.429688 -0.34375 1.671875 -0.65625 C 1.910156 -0.96875 2.054688 -1.476562 2.109375 -2.1875 C 2.171875 -2.894531 2.203125 -3.84375 2.203125 -5.03125 L 2.203125 -13.046875 C 2.203125 -14.242188 2.171875 -15.191406 2.109375 -15.890625 C 2.054688 -16.597656 1.910156 -17.109375 1.671875 -17.421875 C 1.429688 -17.734375 1.054688 -17.890625 0.546875 -17.890625 Z M 0.546875 -17.890625 "/></g></g></g><g fill="#ffffff" fill-opacity="1"><g transform="translate(194.22151, 38.708259)"><g><path d="M 0.546875 -18.078125 L 5.421875 -18.078125 L 5.421875 -17.890625 C 4.898438 -17.890625 4.519531 -17.734375 4.28125 -17.421875 C 4.050781 -17.109375 3.90625 -16.597656 3.84375 -15.890625 C 3.789062 -15.191406 3.765625 -14.242188 3.765625 -13.046875 L 3.765625 -0.1875 L 6.0625 -0.1875 C 6.34375 -0.1875 6.710938 -0.191406 7.171875 -0.203125 C 7.640625 -0.222656 8.144531 -0.265625 8.6875 -0.328125 C 9.238281 -0.390625 9.78125 -0.484375 10.3125 -0.609375 C 10.851562 -0.734375 11.347656 -0.894531 11.796875 -1.09375 C 12.242188 -1.300781 12.601562 -1.554688 12.875 -1.859375 C 13.144531 -2.171875 13.28125 -2.546875 13.28125 -2.984375 L 13.46875 -2.984375 L 13.46875 0 L 0.546875 0 L 0.546875 -0.1875 C 1.054688 -0.1875 1.429688 -0.34375 1.671875 -0.65625 C 1.910156 -0.96875 2.054688 -1.476562 2.109375 -2.1875 C 2.171875 -2.894531 2.203125 -3.84375 2.203125 -5.03125 L 2.203125 -13.046875 C 2.203125 -14.242188 2.171875 -15.191406 2.109375 -15.890625 C 2.054688 -16.597656 1.910156 -17.109375 1.671875 -17.421875 C 1.429688 -17.734375 1.054688 -17.890625 0.546875 -17.890625 Z M 0.546875 -18.078125 "/></g></g></g><g fill="#ffffff" fill-opacity="1"><g transform="translate(208.236806, 38.708259)"><g><path d="M 1.078125 -13.734375 C 1.078125 -14.578125 1.328125 -15.351562 1.828125 -16.0625 C 2.328125 -16.78125 3.0625 -17.351562 4.03125 -17.78125 C 5 -18.21875 6.175781 -18.4375 7.5625 -18.4375 C 8.664062 -18.4375 9.625 -18.359375 10.4375 -18.203125 C 11.25 -18.046875 12.003906 -17.847656 12.703125 -17.609375 L 12.703125 -15.1875 L 12.53125 -15.1875 C 12.53125 -15.1875 12.476562 -15.285156 12.375 -15.484375 C 12.28125 -15.691406 12.117188 -15.945312 11.890625 -16.25 C 11.660156 -16.550781 11.351562 -16.851562 10.96875 -17.15625 C 10.59375 -17.457031 10.125 -17.707031 9.5625 -17.90625 C 9 -18.113281 8.332031 -18.21875 7.5625 -18.21875 C 6.4375 -18.21875 5.484375 -18.019531 4.703125 -17.625 C 3.929688 -17.226562 3.34375 -16.722656 2.9375 -16.109375 C 2.539062 -15.492188 2.34375 -14.847656 2.34375 -14.171875 C 2.34375 -13.554688 2.503906 -13.03125 2.828125 -12.59375 C 3.148438 -12.164062 3.582031 -11.796875 4.125 -11.484375 C 4.675781 -11.171875 5.289062 -10.890625 5.96875 -10.640625 C 6.644531 -10.398438 7.34375 -10.160156 8.0625 -9.921875 C 8.78125 -9.679688 9.476562 -9.421875 10.15625 -9.140625 C 10.832031 -8.859375 11.441406 -8.515625 11.984375 -8.109375 C 12.535156 -7.710938 12.972656 -7.234375 13.296875 -6.671875 C 13.617188 -6.117188 13.78125 -5.441406 13.78125 -4.640625 C 13.78125 -4.015625 13.617188 -3.40625 13.296875 -2.8125 C 12.984375 -2.21875 12.53125 -1.679688 11.9375 -1.203125 C 11.351562 -0.722656 10.644531 -0.34375 9.8125 -0.0625 C 8.976562 0.21875 8.039062 0.359375 7 0.359375 C 6.195312 0.359375 5.4375 0.242188 4.71875 0.015625 C 4 -0.210938 3.335938 -0.5 2.734375 -0.84375 C 2.128906 -1.1875 1.601562 -1.519531 1.15625 -1.84375 L 1.15625 -4.265625 L 1.34375 -4.265625 C 1.34375 -4.265625 1.429688 -4.117188 1.609375 -3.828125 C 1.796875 -3.546875 2.070312 -3.1875 2.4375 -2.75 C 2.8125 -2.320312 3.265625 -1.894531 3.796875 -1.46875 C 4.335938 -1.039062 4.957031 -0.679688 5.65625 -0.390625 C 6.363281 -0.109375 7.148438 0.03125 8.015625 0.03125 C 8.671875 0.03125 9.285156 -0.0703125 9.859375 -0.28125 C 10.429688 -0.5 10.929688 -0.796875 11.359375 -1.171875 C 11.785156 -1.546875 12.117188 -1.96875 12.359375 -2.4375 C 12.609375 -2.90625 12.734375 -3.394531 12.734375 -3.90625 C 12.734375 -4.582031 12.566406 -5.160156 12.234375 -5.640625 C 11.910156 -6.128906 11.472656 -6.550781 10.921875 -6.90625 C 10.367188 -7.257812 9.742188 -7.570312 9.046875 -7.84375 C 8.359375 -8.125 7.644531 -8.390625 6.90625 -8.640625 C 6.164062 -8.890625 5.445312 -9.160156 4.75 -9.453125 C 4.0625 -9.742188 3.441406 -10.078125 2.890625 -10.453125 C 2.335938 -10.835938 1.894531 -11.296875 1.5625 -11.828125 C 1.238281 -12.367188 1.078125 -13.003906 1.078125 -13.734375 Z M 1.078125 -13.734375 "/></g></g></g><g fill="#ffffff" fill-opacity="1"><g transform="translate(44.476254, 61.840826)"><g><path d="M 5.046875 0.140625 C 4.535156 0.140625 4.039062 0.0703125 3.5625 -0.0625 C 3.082031 -0.207031 2.644531 -0.414062 2.25 -0.6875 C 1.863281 -0.96875 1.535156 -1.316406 1.265625 -1.734375 C 0.992188 -2.148438 0.816406 -2.640625 0.734375 -3.203125 L 2.046875 -3.578125 C 2.097656 -3.023438 2.269531 -2.5625 2.5625 -2.1875 C 2.851562 -1.820312 3.21875 -1.550781 3.65625 -1.375 C 4.09375 -1.195312 4.554688 -1.109375 5.046875 -1.109375 C 5.546875 -1.109375 5.984375 -1.1875 6.359375 -1.34375 C 6.734375 -1.507812 7.03125 -1.757812 7.25 -2.09375 C 7.46875 -2.425781 7.578125 -2.84375 7.578125 -3.34375 C 7.578125 -3.738281 7.492188 -4.082031 7.328125 -4.375 C 7.160156 -4.664062 6.929688 -4.914062 6.640625 -5.125 C 6.347656 -5.34375 6.023438 -5.535156 5.671875 -5.703125 C 5.316406 -5.867188 4.945312 -6.03125 4.5625 -6.1875 C 4.1875 -6.351562 3.820312 -6.53125 3.46875 -6.71875 C 3.113281 -6.914062 2.789062 -7.140625 2.5 -7.390625 C 2.207031 -7.640625 1.976562 -7.929688 1.8125 -8.265625 C 1.644531 -8.609375 1.5625 -9.019531 1.5625 -9.5 C 1.5625 -9.976562 1.648438 -10.410156 1.828125 -10.796875 C 2.003906 -11.179688 2.25 -11.507812 2.5625 -11.78125 C 2.875 -12.0625 3.234375 -12.273438 3.640625 -12.421875 C 4.046875 -12.578125 4.476562 -12.65625 4.9375 -12.65625 C 5.675781 -12.65625 6.34375 -12.5 6.9375 -12.1875 C 7.53125 -11.875 8.019531 -11.382812 8.40625 -10.71875 L 7.359375 -10.015625 C 7.097656 -10.503906 6.75 -10.863281 6.3125 -11.09375 C 5.882812 -11.332031 5.421875 -11.453125 4.921875 -11.453125 C 4.578125 -11.453125 4.25 -11.375 3.9375 -11.21875 C 3.632812 -11.070312 3.390625 -10.863281 3.203125 -10.59375 C 3.015625 -10.332031 2.921875 -10.007812 2.921875 -9.625 C 2.921875 -9.269531 3.003906 -8.960938 3.171875 -8.703125 C 3.335938 -8.453125 3.566406 -8.226562 3.859375 -8.03125 C 4.148438 -7.84375 4.472656 -7.664062 4.828125 -7.5 C 5.179688 -7.332031 5.546875 -7.160156 5.921875 -6.984375 C 6.304688 -6.816406 6.675781 -6.628906 7.03125 -6.421875 C 7.382812 -6.222656 7.707031 -5.988281 8 -5.71875 C 8.289062 -5.445312 8.519531 -5.125 8.6875 -4.75 C 8.851562 -4.382812 8.9375 -3.945312 8.9375 -3.4375 C 8.9375 -2.894531 8.835938 -2.398438 8.640625 -1.953125 C 8.441406 -1.515625 8.164062 -1.140625 7.8125 -0.828125 C 7.46875 -0.515625 7.054688 -0.273438 6.578125 -0.109375 C 6.109375 0.0546875 5.597656 0.140625 5.046875 0.140625 Z M 5.046875 0.140625 "/></g></g></g><g fill="#ffffff" fill-opacity="1"><g transform="translate(68.744983, 61.840826)"><g><path d="M 4.734375 0 L 4.734375 -11.3125 L 0.53125 -11.3125 L 0.53125 -12.46875 L 10.359375 -12.46875 L 10.359375 -11.3125 L 6.15625 -11.3125 L 6.15625 0 Z M 4.734375 0 "/></g></g></g><g fill="#ffffff" fill-opacity="1"><g transform="translate(94.108648, 61.840826)"><g><path d="M 5.953125 0.171875 C 5.179688 0.171875 4.519531 0.046875 3.96875 -0.203125 C 3.425781 -0.460938 2.976562 -0.8125 2.625 -1.25 C 2.28125 -1.695312 2.023438 -2.207031 1.859375 -2.78125 C 1.703125 -3.351562 1.625 -3.953125 1.625 -4.578125 L 1.625 -12.46875 L 3.03125 -12.46875 L 3.03125 -4.96875 C 3.03125 -4.4375 3.078125 -3.9375 3.171875 -3.46875 C 3.265625 -3 3.421875 -2.59375 3.640625 -2.25 C 3.867188 -1.90625 4.171875 -1.632812 4.546875 -1.4375 C 4.921875 -1.238281 5.390625 -1.140625 5.953125 -1.140625 C 6.523438 -1.140625 7 -1.238281 7.375 -1.4375 C 7.757812 -1.632812 8.066406 -1.90625 8.296875 -2.25 C 8.523438 -2.59375 8.6875 -3 8.78125 -3.46875 C 8.875 -3.9375 8.921875 -4.4375 8.921875 -4.96875 L 8.921875 -12.46875 L 10.328125 -12.46875 L 10.328125 -4.65625 C 10.328125 -4.007812 10.242188 -3.394531 10.078125 -2.8125 C 9.910156 -2.226562 9.648438 -1.710938 9.296875 -1.265625 C 8.953125 -0.816406 8.503906 -0.460938 7.953125 -0.203125 C 7.398438 0.046875 6.734375 0.171875 5.953125 0.171875 Z M 5.953125 0.171875 "/></g></g></g><g fill="#ffffff" fill-opacity="1"><g transform="translate(120.514271, 61.840826)"><g><path d="M 1.875 0 L 1.875 -12.46875 L 5.046875 -12.46875 C 6.398438 -12.46875 7.546875 -12.222656 8.484375 -11.734375 C 9.421875 -11.253906 10.128906 -10.539062 10.609375 -9.59375 C 11.097656 -8.65625 11.34375 -7.503906 11.34375 -6.140625 C 11.34375 -4.828125 11.09375 -3.710938 10.59375 -2.796875 C 10.101562 -1.890625 9.390625 -1.195312 8.453125 -0.71875 C 7.515625 -0.238281 6.375 0 5.03125 0 Z M 3.28125 -1.28125 L 4.8125 -1.28125 C 5.539062 -1.28125 6.21875 -1.375 6.84375 -1.5625 C 7.46875 -1.757812 8.007812 -2.0625 8.46875 -2.46875 C 8.925781 -2.875 9.285156 -3.390625 9.546875 -4.015625 C 9.804688 -4.640625 9.9375 -5.378906 9.9375 -6.234375 C 9.9375 -7.847656 9.523438 -9.082031 8.703125 -9.9375 C 7.890625 -10.789062 6.660156 -11.21875 5.015625 -11.21875 L 3.28125 -11.21875 Z M 3.28125 -1.28125 "/></g></g></g><g fill="#ffffff" fill-opacity="1"><g transform="translate(147.396716, 61.840826)"><g><path d="M 1.875 0 L 1.875 -12.46875 L 3.28125 -12.46875 L 3.28125 0 Z M 1.875 0 "/></g></g></g><g fill="#ffffff" fill-opacity="1"><g transform="translate(167.003134, 61.840826)"><g><path d="M 6.671875 0.171875 C 5.910156 0.171875 5.226562 0.0625 4.625 -0.15625 C 4.03125 -0.375 3.507812 -0.679688 3.0625 -1.078125 C 2.625 -1.484375 2.253906 -1.953125 1.953125 -2.484375 C 1.660156 -3.023438 1.441406 -3.613281 1.296875 -4.25 C 1.148438 -4.882812 1.078125 -5.546875 1.078125 -6.234375 C 1.078125 -6.929688 1.148438 -7.597656 1.296875 -8.234375 C 1.441406 -8.867188 1.660156 -9.453125 1.953125 -9.984375 C 2.253906 -10.523438 2.625 -10.992188 3.0625 -11.390625 C 3.507812 -11.796875 4.03125 -12.109375 4.625 -12.328125 C 5.226562 -12.546875 5.910156 -12.65625 6.671875 -12.65625 C 7.441406 -12.65625 8.125 -12.546875 8.71875 -12.328125 C 9.320312 -12.109375 9.847656 -11.796875 10.296875 -11.390625 C 10.742188 -10.992188 11.113281 -10.523438 11.40625 -9.984375 C 11.707031 -9.453125 11.925781 -8.867188 12.0625 -8.234375 C 12.207031 -7.597656 12.28125 -6.929688 12.28125 -6.234375 C 12.28125 -5.546875 12.207031 -4.882812 12.0625 -4.25 C 11.925781 -3.613281 11.707031 -3.023438 11.40625 -2.484375 C 11.113281 -1.953125 10.742188 -1.484375 10.296875 -1.078125 C 9.847656 -0.679688 9.320312 -0.375 8.71875 -0.15625 C 8.125 0.0625 7.441406 0.171875 6.671875 0.171875 Z M 6.671875 -1.109375 C 7.429688 -1.109375 8.078125 -1.25 8.609375 -1.53125 C 9.148438 -1.8125 9.59375 -2.191406 9.9375 -2.671875 C 10.28125 -3.160156 10.53125 -3.707031 10.6875 -4.3125 C 10.84375 -4.925781 10.921875 -5.566406 10.921875 -6.234375 C 10.921875 -6.898438 10.84375 -7.539062 10.6875 -8.15625 C 10.53125 -8.769531 10.28125 -9.316406 9.9375 -9.796875 C 9.59375 -10.273438 9.148438 -10.65625 8.609375 -10.9375 C 8.078125 -11.21875 7.429688 -11.359375 6.671875 -11.359375 C 5.921875 -11.359375 5.28125 -11.21875 4.75 -10.9375 C 4.21875 -10.65625 3.78125 -10.273438 3.4375 -9.796875 C 3.101562 -9.316406 2.851562 -8.769531 2.6875 -8.15625 C 2.53125 -7.539062 2.453125 -6.898438 2.453125 -6.234375 C 2.453125 -5.566406 2.53125 -4.925781 2.6875 -4.3125 C 2.851562 -3.707031 3.101562 -3.160156 3.4375 -2.671875 C 3.78125 -2.191406 4.21875 -1.8125 4.75 -1.53125 C 5.28125 -1.25 5.921875 -1.109375 6.671875 -1.109375 Z M 6.671875 -1.109375 "/></g></g></g></svg>