<svg xmlns="http://www.w3.org/2000/svg" xmlns:xlink="http://www.w3.org/1999/xlink" width="500" zoomAndPan="magnify" viewBox="0 0 375 374.999991" height="500" preserveAspectRatio="xMidYMid meet" version="1.0"><path fill="#2a8c82" d="M 44.523438 284.46875 C 43.765625 286.726562 42.710938 288.835938 41.359375 290.796875 C 33.953125 298.539062 26.34375 306.078125 18.738281 313.550781 C 18.265625 313.988281 17.757812 314.371094 17.210938 314.707031 C 16.664062 315.042969 16.089844 315.324219 15.492188 315.550781 C 14.890625 315.777344 14.273438 315.941406 13.644531 316.050781 C 13.011719 316.15625 12.375 316.203125 11.734375 316.1875 C 11.09375 316.171875 10.460938 316.09375 9.832031 315.957031 C 9.207031 315.820312 8.601562 315.625 8.011719 315.367188 C 7.421875 315.113281 6.863281 314.804688 6.335938 314.445312 C 5.808594 314.082031 5.316406 313.671875 4.867188 313.214844 C 4.40625 312.792969 3.984375 312.332031 3.613281 311.828125 C 3.238281 311.324219 2.917969 310.789062 2.648438 310.222656 C 2.375 309.65625 2.164062 309.070312 2.007812 308.464844 C 1.851562 307.855469 1.753906 307.238281 1.714844 306.613281 C 1.679688 305.988281 1.703125 305.363281 1.785156 304.742188 C 1.867188 304.121094 2.011719 303.515625 2.210938 302.917969 C 2.410156 302.324219 2.667969 301.757812 2.980469 301.210938 C 3.289062 300.667969 3.648438 300.160156 4.058594 299.683594 C 11.667969 291.738281 19.476562 283.929688 27.355469 276.320312 C 28.050781 275.664062 28.832031 275.128906 29.695312 274.71875 C 30.5625 274.3125 31.46875 274.046875 32.417969 273.925781 C 33.371094 273.804688 34.316406 273.832031 35.253906 274.011719 C 36.195312 274.191406 37.085938 274.511719 37.925781 274.976562 C 38.847656 275.398438 39.699219 275.9375 40.480469 276.589844 C 41.261719 277.242188 41.941406 277.984375 42.519531 278.820312 C 43.101562 279.65625 43.5625 280.550781 43.902344 281.507812 C 44.242188 282.46875 44.449219 283.453125 44.523438 284.46875 Z M 27.355469 98.652344 C 28.046875 99.3125 28.824219 99.851562 29.6875 100.265625 C 30.550781 100.683594 31.457031 100.953125 32.410156 101.082031 C 33.359375 101.207031 34.304688 101.183594 35.246094 101.011719 C 36.191406 100.835938 37.082031 100.523438 37.925781 100.066406 C 38.847656 99.636719 39.695312 99.097656 40.472656 98.445312 C 41.25 97.789062 41.929688 97.046875 42.507812 96.214844 C 43.089844 95.378906 43.550781 94.484375 43.890625 93.527344 C 44.234375 92.570312 44.441406 91.585938 44.523438 90.570312 C 43.792969 88.300781 42.738281 86.191406 41.359375 84.242188 C 33.953125 76.5 26.34375 68.960938 18.738281 61.488281 C 18.265625 61.050781 17.761719 60.664062 17.214844 60.324219 C 16.671875 59.988281 16.101562 59.703125 15.5 59.476562 C 14.902344 59.246094 14.289062 59.078125 13.65625 58.96875 C 13.023438 58.855469 12.386719 58.808594 11.746094 58.820312 C 11.105469 58.832031 10.472656 58.90625 9.847656 59.042969 C 9.21875 59.175781 8.613281 59.367188 8.023438 59.621094 C 7.433594 59.871094 6.871094 60.175781 6.34375 60.535156 C 5.8125 60.894531 5.320312 61.304688 4.867188 61.757812 C 4.40625 62.183594 3.984375 62.648438 3.613281 63.15625 C 3.238281 63.664062 2.917969 64.199219 2.648438 64.769531 C 2.378906 65.339844 2.164062 65.925781 2.007812 66.535156 C 1.851562 67.148438 1.753906 67.765625 1.71875 68.394531 C 1.679688 69.023438 1.703125 69.648438 1.785156 70.273438 C 1.871094 70.894531 2.011719 71.507812 2.210938 72.101562 C 2.414062 72.699219 2.667969 73.269531 2.980469 73.820312 C 3.289062 74.367188 3.648438 74.878906 4.058594 75.355469 C 11.667969 83.300781 19.476562 91.042969 27.355469 98.652344 Z M 189.136719 51.121094 C 189.800781 51.109375 190.453125 51.039062 191.105469 50.898438 C 191.753906 50.761719 192.382812 50.5625 192.992188 50.300781 C 193.601562 50.039062 194.175781 49.71875 194.722656 49.34375 C 195.269531 48.96875 195.773438 48.542969 196.238281 48.066406 C 196.699219 47.59375 197.113281 47.074219 197.472656 46.519531 C 197.835938 45.964844 198.136719 45.378906 198.382812 44.761719 C 198.628906 44.144531 198.8125 43.511719 198.933594 42.859375 C 199.054688 42.207031 199.109375 41.550781 199.101562 40.886719 C 199.234375 30.585938 199.234375 20.351562 199.101562 10.050781 C 199.101562 9.386719 199.035156 8.730469 198.90625 8.082031 C 198.777344 7.429688 198.585938 6.800781 198.332031 6.1875 C 198.078125 5.574219 197.765625 4.992188 197.398438 4.441406 C 197.03125 3.890625 196.609375 3.378906 196.140625 2.910156 C 195.671875 2.441406 195.164062 2.023438 194.613281 1.65625 C 194.0625 1.285156 193.480469 0.976562 192.867188 0.722656 C 192.253906 0.46875 191.621094 0.277344 190.972656 0.148438 C 190.320312 0.015625 189.664062 -0.046875 189 -0.046875 C 188.339844 -0.046875 187.679688 0.015625 187.03125 0.148438 C 186.378906 0.277344 185.75 0.46875 185.136719 0.722656 C 184.523438 0.976562 183.941406 1.285156 183.390625 1.65625 C 182.839844 2.023438 182.328125 2.441406 181.859375 2.910156 C 181.390625 3.378906 180.972656 3.890625 180.605469 4.441406 C 180.234375 4.992188 179.925781 5.574219 179.671875 6.1875 C 179.417969 6.800781 179.226562 7.429688 179.097656 8.082031 C 178.96875 8.730469 178.902344 9.386719 178.902344 10.050781 C 178.835938 15.167969 178.902344 20.21875 178.902344 25.335938 L 178.835938 25.335938 L 178.835938 40.617188 C 178.808594 41.304688 178.851562 41.988281 178.960938 42.667969 C 179.074219 43.347656 179.253906 44.011719 179.503906 44.652344 C 179.75 45.296875 180.058594 45.90625 180.433594 46.488281 C 180.804688 47.066406 181.234375 47.601562 181.714844 48.09375 C 182.199219 48.585938 182.726562 49.023438 183.296875 49.410156 C 183.871094 49.792969 184.476562 50.113281 185.113281 50.375 C 185.75 50.632812 186.410156 50.828125 187.085938 50.953125 C 187.765625 51.078125 188.445312 51.132812 189.136719 51.121094 Z M 343.445312 106.796875 C 345.429688 106.109375 347.269531 105.144531 348.964844 103.902344 C 356.503906 96.632812 363.933594 89.226562 371.25 81.683594 C 371.714844 81.210938 372.125 80.695312 372.488281 80.136719 C 372.847656 79.582031 373.152344 78.996094 373.398438 78.378906 C 373.644531 77.761719 373.832031 77.125 373.953125 76.472656 C 374.074219 75.820312 374.128906 75.164062 374.121094 74.5 C 374.113281 73.835938 374.039062 73.179688 373.902344 72.53125 C 373.765625 71.878906 373.566406 71.25 373.304688 70.640625 C 373.042969 70.03125 372.726562 69.449219 372.351562 68.902344 C 371.972656 68.355469 371.550781 67.851562 371.074219 67.386719 C 370.597656 66.921875 370.082031 66.507812 369.527344 66.148438 C 368.972656 65.785156 368.386719 65.480469 367.769531 65.234375 C 367.152344 64.984375 366.519531 64.800781 365.867188 64.679688 C 365.214844 64.558594 364.554688 64.5 363.890625 64.507812 C 363.226562 64.515625 362.570312 64.585938 361.921875 64.722656 C 361.273438 64.859375 360.640625 65.058594 360.03125 65.320312 C 359.421875 65.582031 358.839844 65.898438 358.292969 66.273438 C 357.746094 66.648438 357.238281 67.074219 356.773438 67.546875 C 354.621094 69.566406 352.601562 71.652344 350.515625 73.742188 C 345.261719 78.992188 339.945312 84.175781 334.761719 89.5625 C 334.023438 90.28125 333.414062 91.097656 332.9375 92.011719 C 332.460938 92.925781 332.136719 93.890625 331.96875 94.910156 C 331.796875 95.925781 331.789062 96.945312 331.945312 97.964844 C 332.101562 98.984375 332.410156 99.953125 332.875 100.871094 C 333.339844 101.855469 333.941406 102.742188 334.683594 103.535156 C 335.425781 104.328125 336.269531 104.988281 337.214844 105.519531 C 338.164062 106.050781 339.167969 106.425781 340.230469 106.644531 C 341.292969 106.859375 342.367188 106.914062 343.445312 106.796875 Z M 189.136719 323.832031 C 188.445312 323.824219 187.761719 323.886719 187.085938 324.019531 C 186.40625 324.152344 185.75 324.347656 185.113281 324.613281 C 184.476562 324.878906 183.871094 325.203125 183.300781 325.589844 C 182.730469 325.980469 182.203125 326.417969 181.722656 326.914062 C 181.242188 327.40625 180.816406 327.945312 180.441406 328.527344 C 180.070312 329.105469 179.761719 329.71875 179.511719 330.363281 C 179.261719 331.003906 179.082031 331.667969 178.96875 332.347656 C 178.855469 333.027344 178.808594 333.714844 178.835938 334.402344 L 178.835938 349.6875 L 178.902344 349.6875 C 178.902344 354.734375 178.835938 359.851562 178.902344 364.902344 C 178.902344 365.5625 178.964844 366.222656 179.089844 366.871094 C 179.21875 367.523438 179.410156 368.152344 179.660156 368.765625 C 179.910156 369.378906 180.222656 369.960938 180.589844 370.515625 C 180.953125 371.066406 181.371094 371.578125 181.839844 372.046875 C 182.304688 372.519531 182.816406 372.9375 183.363281 373.308594 C 183.914062 373.679688 184.496094 373.992188 185.105469 374.246094 C 185.71875 374.503906 186.347656 374.695312 187 374.828125 C 187.648438 374.957031 188.304688 375.027344 188.96875 375.027344 C 189.628906 375.03125 190.289062 374.96875 190.9375 374.839844 C 191.589844 374.714844 192.21875 374.523438 192.832031 374.273438 C 193.445312 374.019531 194.03125 373.710938 194.582031 373.34375 C 195.132812 372.980469 195.644531 372.5625 196.117188 372.09375 C 196.585938 371.628906 197.007812 371.121094 197.378906 370.570312 C 197.746094 370.019531 198.0625 369.441406 198.316406 368.828125 C 198.574219 368.21875 198.765625 367.585938 198.898438 366.9375 C 199.03125 366.289062 199.097656 365.632812 199.101562 364.96875 C 199.234375 354.667969 199.234375 344.367188 199.101562 334.132812 C 199.113281 333.46875 199.0625 332.808594 198.945312 332.152344 C 198.828125 331.496094 198.644531 330.859375 198.402344 330.238281 C 198.160156 329.617188 197.855469 329.027344 197.496094 328.46875 C 197.136719 327.90625 196.726562 327.386719 196.261719 326.910156 C 195.796875 326.429688 195.292969 326.003906 194.746094 325.625 C 194.199219 325.246094 193.617188 324.921875 193.007812 324.660156 C 192.394531 324.394531 191.761719 324.195312 191.113281 324.054688 C 190.460938 323.914062 189.800781 323.839844 189.136719 323.832031 Z M 348.964844 271.117188 C 347.300781 269.820312 345.460938 268.855469 343.445312 268.222656 C 342.363281 268.101562 341.292969 268.148438 340.226562 268.363281 C 339.160156 268.578125 338.152344 268.949219 337.203125 269.480469 C 336.257812 270.011719 335.414062 270.675781 334.671875 271.472656 C 333.933594 272.269531 333.335938 273.160156 332.875 274.148438 C 332.414062 275.066406 332.105469 276.039062 331.953125 277.058594 C 331.796875 278.074219 331.804688 279.09375 331.976562 280.109375 C 332.144531 281.125 332.46875 282.089844 332.941406 283.003906 C 333.417969 283.917969 334.023438 284.734375 334.761719 285.457031 C 339.945312 290.777344 345.261719 295.960938 350.515625 301.210938 C 352.601562 303.300781 354.621094 305.453125 356.773438 307.472656 C 357.238281 307.925781 357.742188 308.332031 358.285156 308.691406 C 358.828125 309.046875 359.398438 309.351562 360 309.597656 C 360.597656 309.847656 361.21875 310.035156 361.855469 310.164062 C 362.492188 310.292969 363.132812 310.363281 363.785156 310.367188 C 364.433594 310.375 365.078125 310.320312 365.714844 310.203125 C 366.355469 310.085938 366.976562 309.90625 367.582031 309.671875 C 368.1875 309.433594 368.765625 309.144531 369.3125 308.796875 C 369.863281 308.449219 370.371094 308.050781 370.847656 307.609375 C 371.335938 307.152344 371.773438 306.65625 372.164062 306.113281 C 372.554688 305.570312 372.886719 304.996094 373.164062 304.386719 C 373.4375 303.78125 373.652344 303.148438 373.800781 302.5 C 373.949219 301.847656 374.035156 301.191406 374.054688 300.523438 C 374.074219 299.855469 374.027344 299.191406 373.914062 298.535156 C 373.800781 297.875 373.621094 297.234375 373.382812 296.613281 C 373.140625 295.988281 372.839844 295.398438 372.480469 294.835938 C 372.125 294.269531 371.710938 293.75 371.25 293.265625 C 363.890625 285.816406 356.484375 278.339844 348.964844 271.136719 Z M 324.726562 177.066406 C 320.136719 172.292969 315.320312 167.757812 310.289062 163.453125 C 305.257812 159.152344 300.027344 155.101562 294.601562 151.304688 C 289.175781 147.507812 283.582031 143.980469 277.816406 140.726562 C 272.050781 137.46875 266.140625 134.5 260.085938 131.816406 C 254.03125 129.132812 247.863281 126.75 241.578125 124.664062 C 235.292969 122.578125 228.921875 120.800781 222.464844 119.332031 C 216.007812 117.863281 209.492188 116.710938 202.925781 115.875 C 196.355469 115.035156 189.761719 114.515625 183.144531 114.316406 C 92.996094 112.703125 37.316406 173.496094 29.375 182.449219 C 27.421875 184.808594 25.402344 187.097656 23.449219 189.453125 C 25.46875 191.742188 28.363281 195.039062 32.066406 198.742188 C 57.382812 224.191406 110.636719 263.511719 183.144531 261.757812 C 189.761719 261.5625 196.355469 261.046875 202.921875 260.210938 C 209.488281 259.375 216 258.222656 222.457031 256.757812 C 228.914062 255.289062 235.285156 253.515625 241.570312 251.433594 C 247.851562 249.351562 254.023438 246.96875 260.078125 244.289062 C 266.128906 241.609375 272.039062 238.644531 277.808594 235.390625 C 283.574219 232.136719 289.171875 228.613281 294.597656 224.820312 C 300.019531 221.027344 305.25 216.980469 310.285156 212.679688 C 315.320312 208.378906 320.132812 203.847656 324.726562 199.078125 C 328.296875 195.578125 331.863281 192.011719 335.367188 188.441406 C 331.863281 184.691406 328.296875 180.855469 324.726562 177.066406 Z M 324.726562 177.066406 " fill-opacity="1" fill-rule="nonzero"/><path fill="#2a8c82" d="M 371.25 293.289062 C 363.910156 285.816406 356.503906 278.339844 348.964844 271.136719 C 347.300781 269.839844 345.460938 268.875 343.445312 268.242188 C 342.363281 268.121094 341.292969 268.167969 340.226562 268.382812 C 339.160156 268.597656 338.152344 268.96875 337.203125 269.5 C 336.257812 270.03125 335.414062 270.699219 334.671875 271.496094 C 333.933594 272.292969 333.335938 273.183594 332.875 274.167969 C 332.414062 275.089844 332.105469 276.058594 331.953125 277.078125 C 331.796875 278.097656 331.804688 279.113281 331.976562 280.128906 C 332.144531 281.144531 332.46875 282.109375 332.941406 283.023438 C 333.417969 283.9375 334.023438 284.757812 334.761719 285.476562 C 339.945312 290.796875 345.261719 295.980469 350.515625 301.230469 C 352.601562 303.320312 354.621094 305.472656 356.773438 307.492188 C 357.238281 307.945312 357.742188 308.351562 358.285156 308.710938 C 358.828125 309.066406 359.398438 309.371094 360 309.617188 C 360.597656 309.867188 361.21875 310.054688 361.855469 310.183594 C 362.492188 310.3125 363.132812 310.382812 363.785156 310.386719 C 364.433594 310.394531 365.078125 310.339844 365.714844 310.222656 C 366.355469 310.105469 366.976562 309.929688 367.582031 309.691406 C 368.1875 309.453125 368.765625 309.164062 369.3125 308.816406 C 369.863281 308.46875 370.371094 308.074219 370.847656 307.628906 C 371.335938 307.171875 371.773438 306.675781 372.164062 306.132812 C 372.554688 305.589844 372.886719 305.015625 373.164062 304.40625 C 373.4375 303.800781 373.652344 303.171875 373.800781 302.519531 C 373.949219 301.867188 374.035156 301.210938 374.054688 300.542969 C 374.074219 299.875 374.027344 299.210938 373.914062 298.554688 C 373.800781 297.894531 373.621094 297.257812 373.382812 296.632812 C 373.140625 296.011719 372.839844 295.417969 372.480469 294.855469 C 372.125 294.292969 371.710938 293.769531 371.25 293.289062 Z M 189.136719 323.832031 C 188.445312 323.824219 187.761719 323.886719 187.085938 324.019531 C 186.40625 324.152344 185.75 324.347656 185.113281 324.613281 C 184.476562 324.878906 183.871094 325.203125 183.300781 325.589844 C 182.730469 325.980469 182.203125 326.417969 181.722656 326.914062 C 181.242188 327.40625 180.816406 327.945312 180.441406 328.527344 C 180.070312 329.105469 179.761719 329.71875 179.511719 330.363281 C 179.261719 331.003906 179.082031 331.667969 178.96875 332.347656 C 178.855469 333.027344 178.808594 333.714844 178.835938 334.402344 L 178.835938 349.6875 L 178.902344 349.6875 C 178.902344 354.734375 178.835938 359.851562 178.902344 364.902344 C 178.902344 365.5625 178.964844 366.222656 179.089844 366.871094 C 179.21875 367.523438 179.410156 368.152344 179.660156 368.765625 C 179.910156 369.378906 180.222656 369.960938 180.589844 370.515625 C 180.953125 371.066406 181.371094 371.578125 181.839844 372.046875 C 182.304688 372.519531 182.816406 372.9375 183.363281 373.308594 C 183.914062 373.679688 184.496094 373.992188 185.105469 374.246094 C 185.71875 374.503906 186.347656 374.695312 187 374.828125 C 187.648438 374.957031 188.304688 375.027344 188.96875 375.027344 C 189.628906 375.03125 190.289062 374.96875 190.9375 374.839844 C 191.589844 374.714844 192.21875 374.523438 192.832031 374.273438 C 193.445312 374.019531 194.03125 373.710938 194.582031 373.34375 C 195.132812 372.980469 195.644531 372.5625 196.117188 372.09375 C 196.585938 371.628906 197.007812 371.121094 197.378906 370.570312 C 197.746094 370.019531 198.0625 369.441406 198.316406 368.828125 C 198.574219 368.21875 198.765625 367.585938 198.898438 366.9375 C 199.03125 366.289062 199.097656 365.632812 199.101562 364.96875 C 199.234375 354.667969 199.234375 344.367188 199.101562 334.132812 C 199.113281 333.46875 199.0625 332.808594 198.945312 332.152344 C 198.828125 331.496094 198.644531 330.859375 198.402344 330.238281 C 198.160156 329.617188 197.855469 329.027344 197.496094 328.46875 C 197.136719 327.90625 196.726562 327.386719 196.261719 326.910156 C 195.796875 326.429688 195.292969 326.003906 194.746094 325.625 C 194.199219 325.246094 193.617188 324.921875 193.007812 324.660156 C 192.394531 324.394531 191.761719 324.195312 191.113281 324.054688 C 190.460938 323.914062 189.800781 323.839844 189.136719 323.832031 Z M 37.925781 274.953125 C 37.085938 274.492188 36.195312 274.171875 35.253906 273.992188 C 34.316406 273.8125 33.371094 273.785156 32.417969 273.902344 C 31.46875 274.023438 30.5625 274.289062 29.695312 274.699219 C 28.832031 275.109375 28.050781 275.644531 27.355469 276.300781 C 19.476562 283.910156 11.667969 291.71875 4.058594 299.664062 C 3.648438 300.136719 3.289062 300.648438 2.980469 301.191406 C 2.667969 301.738281 2.410156 302.304688 2.210938 302.898438 C 2.011719 303.492188 1.867188 304.101562 1.785156 304.722656 C 1.703125 305.34375 1.679688 305.96875 1.714844 306.59375 C 1.753906 307.21875 1.851562 307.835938 2.007812 308.441406 C 2.164062 309.050781 2.375 309.636719 2.648438 310.203125 C 2.917969 310.769531 3.238281 311.304688 3.613281 311.804688 C 3.984375 312.308594 4.40625 312.773438 4.867188 313.195312 C 5.316406 313.652344 5.808594 314.0625 6.335938 314.421875 C 6.863281 314.785156 7.421875 315.09375 8.011719 315.347656 C 8.601562 315.601562 9.207031 315.800781 9.832031 315.9375 C 10.460938 316.074219 11.09375 316.152344 11.734375 316.167969 C 12.375 316.183594 13.011719 316.136719 13.644531 316.027344 C 14.273438 315.921875 14.890625 315.753906 15.492188 315.53125 C 16.089844 315.304688 16.664062 315.023438 17.210938 314.6875 C 17.757812 314.351562 18.265625 313.964844 18.738281 313.53125 C 26.34375 306.058594 33.953125 298.519531 41.359375 290.777344 C 42.710938 288.816406 43.765625 286.707031 44.523438 284.449219 C 44.445312 283.4375 44.238281 282.453125 43.898438 281.496094 C 43.558594 280.539062 43.097656 279.644531 42.515625 278.8125 C 41.9375 277.976562 41.257812 277.234375 40.476562 276.585938 C 39.699219 275.933594 38.847656 275.398438 37.925781 274.976562 Z M 370.847656 67.390625 C 370.375 66.941406 369.867188 66.535156 369.320312 66.183594 C 368.773438 65.832031 368.195312 65.535156 367.589844 65.292969 C 366.984375 65.050781 366.363281 64.871094 365.722656 64.75 C 365.082031 64.632812 364.433594 64.574219 363.78125 64.582031 C 363.132812 64.585938 362.488281 64.65625 361.847656 64.789062 C 361.210938 64.921875 360.589844 65.113281 359.988281 65.363281 C 359.390625 65.617188 358.816406 65.925781 358.277344 66.289062 C 357.734375 66.652344 357.234375 67.066406 356.773438 67.527344 C 354.621094 69.546875 352.601562 71.632812 350.515625 73.722656 C 345.261719 78.972656 339.945312 84.15625 334.761719 89.542969 C 334.023438 90.261719 333.414062 91.078125 332.9375 91.992188 C 332.460938 92.90625 332.136719 93.871094 331.96875 94.890625 C 331.796875 95.90625 331.789062 96.925781 331.945312 97.941406 C 332.101562 98.960938 332.410156 99.933594 332.875 100.851562 C 333.339844 101.832031 333.941406 102.71875 334.683594 103.515625 C 335.425781 104.308594 336.269531 104.96875 337.214844 105.5 C 338.164062 106.03125 339.167969 106.40625 340.230469 106.621094 C 341.292969 106.839844 342.367188 106.890625 343.445312 106.777344 C 345.429688 106.089844 347.269531 105.125 348.964844 103.882812 C 356.503906 96.609375 363.933594 89.207031 371.25 81.664062 C 371.710938 81.1875 372.121094 80.667969 372.476562 80.109375 C 372.835938 79.550781 373.132812 78.960938 373.375 78.339844 C 373.613281 77.722656 373.789062 77.085938 373.902344 76.429688 C 374.015625 75.777344 374.0625 75.117188 374.042969 74.453125 C 374.023438 73.789062 373.941406 73.136719 373.792969 72.488281 C 373.640625 71.839844 373.429688 71.214844 373.15625 70.609375 C 372.878906 70.007812 372.546875 69.433594 372.160156 68.894531 C 371.773438 68.359375 371.332031 67.863281 370.847656 67.414062 Z M 189 0 C 188.339844 -0.0117188 187.679688 0.046875 187.027344 0.167969 C 186.375 0.289062 185.742188 0.472656 185.128906 0.71875 C 184.511719 0.96875 183.929688 1.273438 183.375 1.640625 C 182.820312 2.003906 182.308594 2.421875 181.839844 2.886719 C 181.367188 3.355469 180.949219 3.863281 180.578125 4.414062 C 180.210938 4.96875 179.902344 5.550781 179.648438 6.164062 C 179.398438 6.777344 179.207031 7.410156 179.082031 8.058594 C 178.957031 8.710938 178.898438 9.367188 178.902344 10.03125 C 178.835938 15.148438 178.902344 20.199219 178.902344 25.3125 L 178.835938 25.3125 L 178.835938 40.597656 C 178.804688 41.277344 178.839844 41.953125 178.941406 42.625 C 179.046875 43.296875 179.214844 43.953125 179.453125 44.589844 C 179.6875 45.226562 179.984375 45.835938 180.34375 46.414062 C 180.703125 46.992188 181.113281 47.53125 181.578125 48.023438 C 182.046875 48.519531 182.558594 48.964844 183.113281 49.355469 C 183.667969 49.75 184.257812 50.082031 184.878906 50.355469 C 185.503906 50.628906 186.144531 50.839844 186.8125 50.984375 C 187.476562 51.128906 188.148438 51.203125 188.828125 51.214844 C 189.507812 51.222656 190.183594 51.164062 190.851562 51.039062 C 191.519531 50.910156 192.167969 50.71875 192.796875 50.460938 C 193.429688 50.203125 194.027344 49.886719 194.589844 49.507812 C 195.15625 49.132812 195.679688 48.703125 196.160156 48.21875 C 196.636719 47.734375 197.0625 47.210938 197.4375 46.640625 C 197.8125 46.074219 198.125 45.472656 198.375 44.839844 C 198.628906 44.210938 198.816406 43.558594 198.9375 42.890625 C 199.058594 42.222656 199.113281 41.546875 199.101562 40.867188 C 199.234375 30.566406 199.234375 20.332031 199.101562 10.03125 C 199.105469 9.367188 199.046875 8.710938 198.921875 8.058594 C 198.796875 7.410156 198.605469 6.777344 198.355469 6.164062 C 198.101562 5.550781 197.792969 4.96875 197.421875 4.414062 C 197.054688 3.863281 196.636719 3.355469 196.164062 2.886719 C 195.695312 2.421875 195.183594 2.003906 194.628906 1.640625 C 194.074219 1.273438 193.488281 0.96875 192.875 0.71875 C 192.257812 0.472656 191.625 0.289062 190.972656 0.167969 C 190.320312 0.046875 189.664062 -0.0117188 189 0 Z M 41.359375 84.242188 C 33.953125 76.5 26.34375 68.960938 18.738281 61.488281 C 18.265625 61.050781 17.761719 60.664062 17.214844 60.324219 C 16.671875 59.988281 16.101562 59.703125 15.5 59.476562 C 14.902344 59.246094 14.289062 59.078125 13.65625 58.96875 C 13.023438 58.855469 12.386719 58.808594 11.746094 58.820312 C 11.105469 58.832031 10.472656 58.90625 9.847656 59.042969 C 9.21875 59.175781 8.613281 59.367188 8.023438 59.621094 C 7.433594 59.871094 6.871094 60.175781 6.34375 60.535156 C 5.8125 60.894531 5.320312 61.304688 4.867188 61.757812 C 4.40625 62.183594 3.984375 62.648438 3.613281 63.15625 C 3.238281 63.664062 2.917969 64.199219 2.648438 64.769531 C 2.378906 65.339844 2.164062 65.925781 2.007812 66.535156 C 1.851562 67.148438 1.753906 67.765625 1.71875 68.394531 C 1.679688 69.023438 1.703125 69.648438 1.785156 70.273438 C 1.871094 70.894531 2.011719 71.507812 2.210938 72.101562 C 2.414062 72.699219 2.667969 73.269531 2.980469 73.820312 C 3.289062 74.367188 3.648438 74.878906 4.058594 75.355469 C 11.667969 83.300781 19.476562 91.042969 27.355469 98.652344 C 28.046875 99.3125 28.824219 99.851562 29.6875 100.265625 C 30.550781 100.683594 31.457031 100.953125 32.410156 101.082031 C 33.359375 101.207031 34.304688 101.183594 35.246094 101.011719 C 36.191406 100.835938 37.082031 100.523438 37.925781 100.066406 C 38.847656 99.636719 39.695312 99.097656 40.472656 98.445312 C 41.25 97.789062 41.929688 97.046875 42.507812 96.214844 C 43.089844 95.378906 43.550781 94.484375 43.890625 93.527344 C 44.234375 92.570312 44.441406 91.585938 44.523438 90.570312 C 43.792969 88.300781 42.738281 86.191406 41.359375 84.242188 Z M 324.726562 177.066406 C 320.136719 172.296875 315.320312 167.757812 310.289062 163.453125 C 305.257812 159.152344 300.027344 155.101562 294.601562 151.304688 C 289.175781 147.507812 283.582031 143.980469 277.816406 140.726562 C 272.050781 137.46875 266.140625 134.5 260.085938 131.816406 C 254.03125 129.132812 247.863281 126.75 241.578125 124.664062 C 235.292969 122.578125 228.921875 120.800781 222.464844 119.332031 C 216.007812 117.863281 209.492188 116.710938 202.925781 115.875 C 196.355469 115.035156 189.761719 114.515625 183.144531 114.316406 C 92.996094 112.703125 37.316406 173.496094 29.375 182.449219 C 27.421875 184.808594 25.402344 187.097656 23.449219 189.453125 C 25.46875 191.742188 28.363281 195.039062 32.066406 198.742188 C 57.382812 224.191406 110.636719 263.511719 183.144531 261.757812 C 189.761719 261.5625 196.355469 261.046875 202.921875 260.210938 C 209.488281 259.375 216 258.222656 222.457031 256.757812 C 228.914062 255.289062 235.285156 253.515625 241.570312 251.433594 C 247.851562 249.351562 254.023438 246.96875 260.078125 244.289062 C 266.128906 241.609375 272.039062 238.644531 277.808594 235.390625 C 283.574219 232.136719 289.171875 228.613281 294.597656 224.820312 C 300.023438 221.027344 305.25 216.980469 310.285156 212.679688 C 315.320312 208.378906 320.132812 203.847656 324.726562 199.078125 C 328.296875 195.578125 331.863281 192.011719 335.367188 188.441406 C 331.863281 184.691406 328.296875 180.855469 324.726562 177.066406 Z M 49.976562 188.039062 C 53.578125 184.484375 57.316406 181.085938 61.195312 177.835938 C 65.070312 174.589844 69.074219 171.503906 73.203125 168.582031 C 77.335938 165.660156 81.574219 162.910156 85.929688 160.332031 C 90.28125 157.757812 94.734375 155.363281 99.28125 153.148438 C 103.828125 150.933594 108.460938 148.90625 113.171875 147.070312 C 117.886719 145.234375 122.667969 143.589844 127.511719 142.144531 C 132.359375 140.695312 137.257812 139.449219 142.207031 138.398438 C 147.15625 137.351562 152.140625 136.503906 157.15625 135.863281 C 154.613281 136.945312 152.164062 138.210938 149.808594 139.652344 C 147.453125 141.097656 145.210938 142.703125 143.089844 144.472656 C 140.96875 146.242188 138.984375 148.15625 137.144531 150.21875 C 135.300781 152.277344 133.617188 154.460938 132.09375 156.765625 C 130.570312 159.070312 129.222656 161.472656 128.050781 163.976562 C 126.878906 166.480469 125.894531 169.054688 125.097656 171.699219 C 124.300781 174.347656 123.699219 177.035156 123.296875 179.769531 C 122.894531 182.503906 122.691406 185.253906 122.6875 188.015625 C 122.6875 190.78125 122.886719 193.527344 123.285156 196.261719 C 123.6875 198.996094 124.28125 201.6875 125.074219 204.335938 C 125.867188 206.984375 126.847656 209.558594 128.019531 212.0625 C 129.1875 214.566406 130.53125 216.972656 132.054688 219.28125 C 133.574219 221.585938 135.253906 223.773438 137.09375 225.835938 C 138.933594 227.894531 140.914062 229.8125 143.035156 231.585938 C 145.152344 233.359375 147.390625 234.96875 149.746094 236.414062 C 152.101562 237.859375 154.550781 239.128906 157.089844 240.214844 C 152.074219 239.578125 147.09375 238.734375 142.144531 237.6875 C 137.199219 236.644531 132.300781 235.398438 127.457031 233.953125 C 122.613281 232.507812 117.832031 230.867188 113.121094 229.03125 C 108.410156 227.195312 103.78125 225.171875 99.238281 222.957031 C 94.691406 220.746094 90.242188 218.351562 85.894531 215.773438 C 81.542969 213.195312 77.304688 210.445312 73.179688 207.523438 C 69.054688 204.601562 65.054688 201.515625 61.179688 198.265625 C 57.304688 195.015625 53.570312 191.613281 49.976562 188.058594 Z M 179.441406 224.597656 C 178.246094 224.597656 177.050781 224.539062 175.859375 224.421875 C 174.667969 224.308594 173.484375 224.132812 172.3125 223.898438 C 171.136719 223.667969 169.980469 223.378906 168.832031 223.03125 C 167.6875 222.683594 166.5625 222.285156 165.457031 221.828125 C 164.351562 221.371094 163.269531 220.859375 162.214844 220.296875 C 161.15625 219.734375 160.132812 219.117188 159.136719 218.453125 C 158.140625 217.789062 157.179688 217.078125 156.253906 216.320312 C 155.328125 215.5625 154.445312 214.761719 153.597656 213.914062 C 152.75 213.070312 151.949219 212.183594 151.1875 211.257812 C 150.429688 210.335938 149.714844 209.375 149.050781 208.378906 C 148.382812 207.386719 147.769531 206.359375 147.203125 205.304688 C 146.640625 204.25 146.128906 203.171875 145.671875 202.066406 C 145.210938 200.960938 144.808594 199.835938 144.460938 198.6875 C 144.113281 197.542969 143.820312 196.386719 143.589844 195.210938 C 143.355469 194.039062 143.179688 192.855469 143.0625 191.664062 C 142.941406 190.472656 142.882812 189.28125 142.882812 188.082031 C 142.882812 186.886719 142.941406 185.691406 143.058594 184.503906 C 143.175781 183.3125 143.351562 182.128906 143.582031 180.953125 C 143.816406 179.78125 144.105469 178.621094 144.453125 177.476562 C 144.800781 176.332031 145.203125 175.207031 145.660156 174.101562 C 146.121094 172.996094 146.628906 171.914062 147.195312 170.859375 C 147.757812 169.804688 148.371094 168.777344 149.039062 167.78125 C 149.703125 166.789062 150.414062 165.828125 151.171875 164.902344 C 151.933594 163.976562 152.734375 163.09375 153.582031 162.246094 C 154.425781 161.398438 155.3125 160.597656 156.238281 159.839844 C 157.164062 159.078125 158.125 158.367188 159.117188 157.703125 C 160.113281 157.039062 161.136719 156.421875 162.195312 155.859375 C 163.25 155.296875 164.328125 154.785156 165.4375 154.328125 C 166.542969 153.867188 167.667969 153.464844 168.8125 153.117188 C 169.957031 152.773438 171.117188 152.480469 172.289062 152.25 C 173.464844 152.015625 174.644531 151.839844 175.835938 151.722656 C 177.027344 151.605469 178.222656 151.546875 179.417969 151.546875 C 180.617188 151.546875 181.808594 151.609375 183 151.726562 C 184.191406 151.84375 185.375 152.019531 186.546875 152.253906 C 187.71875 152.488281 188.878906 152.777344 190.023438 153.125 C 191.167969 153.472656 192.292969 153.875 193.398438 154.335938 C 194.503906 154.792969 195.585938 155.304688 196.640625 155.871094 C 197.695312 156.433594 198.722656 157.050781 199.714844 157.714844 C 200.710938 158.378906 201.667969 159.09375 202.59375 159.851562 C 203.519531 160.613281 204.402344 161.414062 205.25 162.261719 C 206.09375 163.109375 206.898438 163.996094 207.65625 164.921875 C 208.414062 165.847656 209.125 166.804688 209.789062 167.800781 C 210.453125 168.796875 211.066406 169.824219 211.632812 170.878906 C 212.195312 171.933594 212.703125 173.015625 213.160156 174.121094 C 213.617188 175.226562 214.019531 176.351562 214.367188 177.5 C 214.714844 178.644531 215.003906 179.804688 215.234375 180.976562 C 215.46875 182.152344 215.640625 183.332031 215.757812 184.523438 C 215.875 185.714844 215.933594 186.910156 215.929688 188.105469 C 215.929688 189.300781 215.871094 190.496094 215.753906 191.683594 C 215.636719 192.875 215.460938 194.054688 215.226562 195.226562 C 214.992188 196.398438 214.703125 197.558594 214.355469 198.703125 C 214.007812 199.847656 213.605469 200.96875 213.148438 202.074219 C 212.6875 203.179688 212.179688 204.257812 211.613281 205.3125 C 211.050781 206.367188 210.4375 207.390625 209.773438 208.386719 C 209.109375 209.378906 208.394531 210.339844 207.636719 211.261719 C 206.878906 212.1875 206.078125 213.070312 205.230469 213.917969 C 204.386719 214.761719 203.5 215.5625 202.578125 216.324219 C 201.652344 217.082031 200.695312 217.792969 199.699219 218.457031 C 198.707031 219.121094 197.683594 219.734375 196.628906 220.300781 C 195.574219 220.863281 194.496094 221.375 193.390625 221.832031 C 192.285156 222.289062 191.160156 222.691406 190.015625 223.039062 C 188.875 223.386719 187.714844 223.675781 186.542969 223.910156 C 185.371094 224.144531 184.1875 224.320312 183 224.4375 C 181.808594 224.554688 180.617188 224.617188 179.421875 224.617188 Z M 202.0625 240.082031 C 204.582031 238.984375 207.007812 237.710938 209.34375 236.261719 C 211.675781 234.8125 213.894531 233.199219 215.992188 231.429688 C 218.09375 229.65625 220.054688 227.742188 221.875 225.6875 C 223.699219 223.628906 225.363281 221.453125 226.867188 219.152344 C 228.371094 216.855469 229.703125 214.457031 230.859375 211.964844 C 232.019531 209.472656 232.988281 206.910156 233.773438 204.277344 C 234.558594 201.644531 235.148438 198.96875 235.542969 196.25 C 235.9375 193.53125 236.136719 190.796875 236.132812 188.050781 C 236.132812 185.300781 235.929688 182.570312 235.53125 179.851562 C 235.132812 177.132812 234.539062 174.457031 233.753906 171.824219 C 232.964844 169.191406 231.988281 166.632812 230.828125 164.140625 C 229.667969 161.648438 228.335938 159.257812 226.828125 156.960938 C 225.320312 154.664062 223.652344 152.488281 221.828125 150.433594 C 220.003906 148.378906 218.039062 146.464844 215.9375 144.695312 C 213.835938 142.929688 211.617188 141.320312 209.28125 139.875 C 206.945312 138.425781 204.515625 137.15625 201.996094 136.0625 C 206.925781 136.742188 211.824219 137.617188 216.683594 138.691406 C 221.546875 139.765625 226.355469 141.03125 231.117188 142.492188 C 235.875 143.953125 240.566406 145.601562 245.195312 147.441406 C 249.820312 149.28125 254.367188 151.300781 258.828125 153.507812 C 263.292969 155.710938 267.660156 158.09375 271.933594 160.648438 C 276.203125 163.207031 280.367188 165.929688 284.417969 168.820312 C 288.472656 171.710938 292.402344 174.761719 296.207031 177.96875 C 300.015625 181.179688 303.6875 184.535156 307.222656 188.039062 C 303.6875 191.542969 300.019531 194.898438 296.214844 198.109375 C 292.410156 201.316406 288.484375 204.367188 284.433594 207.261719 C 280.382812 210.15625 276.226562 212.882812 271.957031 215.441406 C 267.6875 218 263.324219 220.382812 258.863281 222.589844 C 254.402344 224.800781 249.859375 226.824219 245.234375 228.667969 C 240.613281 230.511719 235.921875 232.167969 231.167969 233.632812 C 226.410156 235.097656 221.601562 236.371094 216.746094 237.453125 C 211.886719 238.53125 206.992188 239.414062 202.0625 240.101562 Z M 202.0625 240.082031 " fill-opacity="1" fill-rule="nonzero"/><path fill="#60bfbf" d="M 215.929688 188.125 C 215.929688 189.324219 215.871094 190.515625 215.753906 191.707031 C 215.632812 192.894531 215.457031 194.078125 215.222656 195.25 C 214.988281 196.425781 214.695312 197.582031 214.347656 198.726562 C 214 199.871094 213.597656 200.996094 213.136719 202.101562 C 212.679688 203.207031 212.167969 204.285156 211.601562 205.339844 C 211.039062 206.394531 210.421875 207.417969 209.757812 208.410156 C 209.089844 209.40625 208.378906 210.363281 207.621094 211.289062 C 206.859375 212.210938 206.054688 213.097656 205.210938 213.941406 C 204.363281 214.789062 203.476562 215.589844 202.550781 216.347656 C 201.625 217.105469 200.667969 217.816406 199.671875 218.480469 C 198.675781 219.144531 197.652344 219.757812 196.59375 220.320312 C 195.539062 220.882812 194.460938 221.390625 193.351562 221.847656 C 192.246094 222.304688 191.121094 222.707031 189.976562 223.054688 C 188.832031 223.398438 187.671875 223.6875 186.5 223.921875 C 185.328125 224.152344 184.144531 224.328125 182.953125 224.445312 C 181.761719 224.558594 180.570312 224.617188 179.375 224.617188 C 178.175781 224.613281 176.984375 224.554688 175.792969 224.4375 C 174.605469 224.320312 173.421875 224.140625 172.25 223.90625 C 171.074219 223.671875 169.917969 223.382812 168.773438 223.035156 C 167.628906 222.683594 166.503906 222.28125 165.398438 221.824219 C 164.292969 221.363281 163.214844 220.851562 162.160156 220.289062 C 161.105469 219.722656 160.082031 219.109375 159.089844 218.441406 C 158.09375 217.777344 157.136719 217.0625 156.210938 216.304688 C 155.289062 215.542969 154.402344 214.742188 153.558594 213.894531 C 152.710938 213.046875 151.910156 212.164062 151.152344 211.238281 C 150.394531 210.3125 149.683594 209.351562 149.019531 208.355469 C 148.355469 207.359375 147.742188 206.335938 147.179688 205.28125 C 146.617188 204.222656 146.109375 203.144531 145.652344 202.039062 C 145.195312 200.933594 144.792969 199.808594 144.445312 198.664062 C 144.101562 197.515625 143.8125 196.359375 143.578125 195.183594 C 143.347656 194.011719 143.171875 192.828125 143.054688 191.640625 C 142.941406 190.449219 142.882812 189.253906 142.882812 188.058594 C 142.886719 186.863281 142.945312 185.667969 143.0625 184.480469 C 143.179688 183.289062 143.359375 182.105469 143.59375 180.933594 C 143.828125 179.761719 144.117188 178.601562 144.464844 177.457031 C 144.816406 176.3125 145.21875 175.1875 145.675781 174.085938 C 146.136719 172.980469 146.648438 171.898438 147.210938 170.84375 C 147.777344 169.792969 148.390625 168.765625 149.058594 167.773438 C 149.722656 166.777344 150.4375 165.820312 151.195312 164.894531 C 151.957031 163.972656 152.757812 163.085938 153.605469 162.242188 C 154.453125 161.398438 155.335938 160.597656 156.261719 159.835938 C 157.1875 159.078125 158.148438 158.367188 159.144531 157.707031 C 160.140625 157.042969 161.164062 156.429688 162.21875 155.867188 C 163.277344 155.300781 164.355469 154.792969 165.460938 154.335938 C 166.566406 153.878906 167.691406 153.476562 168.835938 153.132812 C 169.984375 152.785156 171.140625 152.496094 172.316406 152.265625 C 173.488281 152.03125 174.671875 151.855469 175.859375 151.742188 C 177.050781 151.625 178.246094 151.566406 179.441406 151.570312 C 180.636719 151.570312 181.832031 151.628906 183.019531 151.746094 C 184.210938 151.867188 185.394531 152.042969 186.566406 152.277344 C 187.738281 152.511719 188.898438 152.800781 190.042969 153.148438 C 191.1875 153.496094 192.3125 153.902344 193.417969 154.359375 C 194.523438 154.820312 195.601562 155.332031 196.65625 155.894531 C 197.710938 156.460938 198.734375 157.074219 199.730469 157.742188 C 200.722656 158.40625 201.683594 159.117188 202.605469 159.878906 C 203.53125 160.636719 204.414062 161.441406 205.257812 162.289062 C 206.105469 163.132812 206.90625 164.019531 207.664062 164.945312 C 208.421875 165.871094 209.132812 166.832031 209.796875 167.828125 C 210.460938 168.824219 211.074219 169.847656 211.636719 170.902344 C 212.199219 171.960938 212.710938 173.039062 213.164062 174.144531 C 213.621094 175.25 214.023438 176.375 214.371094 177.523438 C 214.714844 178.667969 215.003906 179.824219 215.238281 181 C 215.46875 182.171875 215.644531 183.355469 215.757812 184.546875 C 215.875 185.738281 215.933594 186.929688 215.929688 188.125 Z M 215.929688 188.125 " fill-opacity="1" fill-rule="nonzero"/><path fill="#9bf2f2" d="M 122.6875 188.125 C 122.691406 190.886719 122.894531 193.628906 123.296875 196.359375 C 123.699219 199.089844 124.300781 201.777344 125.097656 204.417969 C 125.890625 207.0625 126.875 209.632812 128.042969 212.132812 C 129.214844 214.632812 130.558594 217.03125 132.082031 219.335938 C 133.601562 221.636719 135.28125 223.820312 137.117188 225.875 C 138.957031 227.933594 140.9375 229.847656 143.054688 231.617188 C 145.171875 233.386719 147.40625 234.996094 149.757812 236.4375 C 152.109375 237.882812 154.554688 239.148438 157.089844 240.234375 C 152.074219 239.597656 147.089844 238.753906 142.144531 237.707031 C 137.199219 236.660156 132.300781 235.414062 127.457031 233.96875 C 122.609375 232.523438 117.832031 230.882812 113.121094 229.046875 C 108.410156 227.207031 103.78125 225.183594 99.234375 222.96875 C 94.6875 220.753906 90.242188 218.359375 85.890625 215.78125 C 81.539062 213.203125 77.300781 210.453125 73.175781 207.527344 C 69.050781 204.605469 65.050781 201.519531 61.179688 198.269531 C 57.304688 195.015625 53.570312 191.613281 49.976562 188.058594 C 53.578125 184.507812 57.316406 181.105469 61.195312 177.855469 C 65.070312 174.609375 69.074219 171.523438 73.203125 168.601562 C 77.335938 165.679688 81.574219 162.929688 85.929688 160.355469 C 90.28125 157.777344 94.734375 155.382812 99.28125 153.167969 C 103.828125 150.953125 108.460938 148.929688 113.171875 147.089844 C 117.886719 145.253906 122.667969 143.613281 127.511719 142.164062 C 132.359375 140.714844 137.257812 139.46875 142.207031 138.417969 C 147.15625 137.371094 152.140625 136.523438 157.15625 135.882812 C 154.613281 136.972656 152.164062 138.238281 149.804688 139.6875 C 147.445312 141.132812 145.207031 142.742188 143.082031 144.515625 C 140.960938 146.292969 138.976562 148.210938 137.132812 150.273438 C 135.289062 152.335938 133.609375 154.523438 132.085938 156.832031 C 130.558594 159.140625 129.210938 161.550781 128.039062 164.054688 C 126.867188 166.5625 125.882812 169.140625 125.089844 171.789062 C 124.292969 174.441406 123.695312 177.132812 123.292969 179.871094 C 122.886719 182.609375 122.6875 185.359375 122.6875 188.125 Z M 202.0625 240.101562 C 206.992188 239.414062 211.886719 238.53125 216.742188 237.453125 C 221.601562 236.375 226.410156 235.101562 231.164062 233.636719 C 235.921875 232.171875 240.609375 230.515625 245.234375 228.675781 C 249.859375 226.832031 254.398438 224.808594 258.859375 222.601562 C 263.320312 220.394531 267.683594 218.011719 271.953125 215.453125 C 276.222656 212.894531 280.382812 210.167969 284.433594 207.277344 C 288.480469 204.382812 292.410156 201.332031 296.214844 198.125 C 300.019531 194.917969 303.6875 191.5625 307.222656 188.058594 C 303.6875 184.554688 300.015625 181.199219 296.207031 177.992188 C 292.402344 174.78125 288.472656 171.734375 284.417969 168.839844 C 280.367188 165.949219 276.203125 163.226562 271.933594 160.667969 C 267.660156 158.113281 263.292969 155.730469 258.828125 153.527344 C 254.367188 151.324219 249.820312 149.300781 245.195312 147.460938 C 240.566406 145.625 235.875 143.972656 231.117188 142.511719 C 226.355469 141.050781 221.546875 139.785156 216.683594 138.710938 C 211.824219 137.640625 206.925781 136.761719 201.996094 136.082031 C 204.515625 137.175781 206.945312 138.449219 209.28125 139.894531 C 211.617188 141.339844 213.835938 142.949219 215.9375 144.71875 C 218.039062 146.488281 220.003906 148.398438 221.828125 150.453125 C 223.652344 152.507812 225.320312 154.683594 226.828125 156.980469 C 228.335938 159.277344 229.667969 161.671875 230.828125 164.160156 C 231.988281 166.652344 232.964844 169.210938 233.75 171.84375 C 234.539062 174.476562 235.132812 177.152344 235.53125 179.871094 C 235.929688 182.589844 236.132812 185.324219 236.132812 188.070312 C 236.136719 190.816406 235.9375 193.550781 235.542969 196.269531 C 235.148438 198.988281 234.558594 201.664062 233.773438 204.296875 C 232.988281 206.933594 232.019531 209.496094 230.859375 211.988281 C 229.703125 214.480469 228.371094 216.875 226.867188 219.171875 C 225.363281 221.472656 223.699219 223.648438 221.875 225.707031 C 220.054688 227.761719 218.09375 229.675781 215.992188 231.449219 C 213.894531 233.222656 211.675781 234.832031 209.34375 236.28125 C 207.007812 237.730469 204.582031 239.003906 202.0625 240.101562 Z M 202.0625 240.101562 " fill-opacity="1" fill-rule="nonzero"/></svg>